<mxfile host="app.diagrams.net" agent="Mozilla/5.0 (Windows NT 10.0; Win64; x64) AppleWebKit/537.36 (KHTML, like Gecko) Chrome/135.0.0.0 Safari/537.36 Edg/135.0.0.0" scale="1" border="0" version="26.2.12">
  <diagram name="Page-1" id="W4CPtD0JYgFTIhxDxH9g">
    <mxGraphModel dx="372" dy="1088" grid="1" gridSize="10" guides="1" tooltips="1" connect="1" arrows="1" fold="1" page="1" pageScale="1" pageWidth="850" pageHeight="1100" background="none" math="0" shadow="0">
      <root>
        <mxCell id="0" />
        <mxCell id="1" parent="0" />
        <mxCell id="lRMkZzCJkcgg9IVptvqz-41" value="" style="rounded=0;whiteSpace=wrap;html=1;" parent="1" vertex="1">
          <mxGeometry x="2365" y="1136.5" width="450" height="167" as="geometry" />
        </mxCell>
        <mxCell id="lRMkZzCJkcgg9IVptvqz-1" value="" style="rounded=0;whiteSpace=wrap;html=1;movable=1;resizable=1;rotatable=1;deletable=1;editable=1;locked=0;connectable=1;" parent="1" vertex="1">
          <mxGeometry x="1930" y="760" width="670" height="300" as="geometry" />
        </mxCell>
        <mxCell id="Pd79XSAWvJQS5Z2BdVuV-46" value="" style="rounded=0;whiteSpace=wrap;html=1;" parent="1" vertex="1">
          <mxGeometry x="1930" y="330" width="670" height="350" as="geometry" />
        </mxCell>
        <mxCell id="Pd79XSAWvJQS5Z2BdVuV-48" value="Auth Service&lt;div&gt;(JWT, Oauth)&lt;br&gt;/auth&lt;/div&gt;" style="rounded=0;whiteSpace=wrap;html=1;fillColor=#e3c800;fontColor=#000000;strokeColor=#B09500;" parent="1" vertex="1">
          <mxGeometry x="2395" y="470" width="120" height="75" as="geometry" />
        </mxCell>
        <mxCell id="Pd79XSAWvJQS5Z2BdVuV-51" style="edgeStyle=orthogonalEdgeStyle;rounded=0;orthogonalLoop=1;jettySize=auto;html=1;exitX=1;exitY=0.5;exitDx=0;exitDy=0;entryX=0.5;entryY=1;entryDx=0;entryDy=0;" parent="1" source="Pd79XSAWvJQS5Z2BdVuV-52" target="Pd79XSAWvJQS5Z2BdVuV-55" edge="1">
          <mxGeometry relative="1" as="geometry" />
        </mxCell>
        <mxCell id="Pd79XSAWvJQS5Z2BdVuV-52" value="Registered?" style="shape=rhombus;perimeter=rhombusPerimeter;whiteSpace=wrap;html=1;align=center;fillColor=#6a00ff;fontColor=#ffffff;strokeColor=#3700CC;" parent="1" vertex="1">
          <mxGeometry x="1975" y="350" width="120" height="110" as="geometry" />
        </mxCell>
        <mxCell id="Pd79XSAWvJQS5Z2BdVuV-53" style="edgeStyle=orthogonalEdgeStyle;rounded=0;orthogonalLoop=1;jettySize=auto;html=1;exitX=0.987;exitY=0.458;exitDx=0;exitDy=0;entryX=0.423;entryY=0;entryDx=0;entryDy=0;exitPerimeter=0;entryPerimeter=0;" parent="1" source="Pd79XSAWvJQS5Z2BdVuV-56" target="Pd79XSAWvJQS5Z2BdVuV-48" edge="1">
          <mxGeometry relative="1" as="geometry" />
        </mxCell>
        <mxCell id="Pd79XSAWvJQS5Z2BdVuV-54" value="/auth/login" style="edgeLabel;html=1;align=center;verticalAlign=middle;resizable=0;points=[];" parent="Pd79XSAWvJQS5Z2BdVuV-53" vertex="1" connectable="0">
          <mxGeometry x="0.5491" y="13" relative="1" as="geometry">
            <mxPoint x="-14" as="offset" />
          </mxGeometry>
        </mxCell>
        <mxCell id="Pd79XSAWvJQS5Z2BdVuV-55" value="" style="verticalLabelPosition=bottom;verticalAlign=top;html=1;shape=offPageConnector;rounded=0;size=0.5454545454545454;rotation=90;fillColor=#1ba1e2;fontColor=#ffffff;strokeColor=#006EAF;" parent="1" vertex="1">
          <mxGeometry x="2160" y="350" width="110" height="110" as="geometry" />
        </mxCell>
        <mxCell id="Pd79XSAWvJQS5Z2BdVuV-56" value="Display Login" style="text;html=1;align=center;verticalAlign=middle;resizable=0;points=[];autosize=1;strokeColor=none;fillColor=none;" parent="1" vertex="1">
          <mxGeometry x="2170" y="390" width="100" height="30" as="geometry" />
        </mxCell>
        <mxCell id="Pd79XSAWvJQS5Z2BdVuV-57" style="edgeStyle=orthogonalEdgeStyle;rounded=0;orthogonalLoop=1;jettySize=auto;html=1;exitX=0.5;exitY=0;exitDx=0;exitDy=0;entryX=0;entryY=0.5;entryDx=0;entryDy=0;" parent="1" source="Pd79XSAWvJQS5Z2BdVuV-59" target="Pd79XSAWvJQS5Z2BdVuV-48" edge="1">
          <mxGeometry relative="1" as="geometry" />
        </mxCell>
        <mxCell id="Pd79XSAWvJQS5Z2BdVuV-58" value="/auth/register" style="edgeLabel;html=1;align=center;verticalAlign=middle;resizable=0;points=[];" parent="Pd79XSAWvJQS5Z2BdVuV-57" vertex="1" connectable="0">
          <mxGeometry x="0.7569" y="3" relative="1" as="geometry">
            <mxPoint x="4" y="-15" as="offset" />
          </mxGeometry>
        </mxCell>
        <mxCell id="Pd79XSAWvJQS5Z2BdVuV-59" value="" style="verticalLabelPosition=bottom;verticalAlign=top;html=1;shape=offPageConnector;rounded=0;size=0.5454545454545454;rotation=90;fillColor=#1ba1e2;fontColor=#ffffff;strokeColor=#006EAF;" parent="1" vertex="1">
          <mxGeometry x="1945" y="550" width="115" height="108" as="geometry" />
        </mxCell>
        <mxCell id="Pd79XSAWvJQS5Z2BdVuV-60" value="Display&amp;nbsp;&lt;div&gt;Registeration&lt;/div&gt;" style="text;html=1;align=center;verticalAlign=middle;resizable=0;points=[];autosize=1;strokeColor=none;fillColor=none;" parent="1" vertex="1">
          <mxGeometry x="1970" y="587" width="90" height="40" as="geometry" />
        </mxCell>
        <mxCell id="Pd79XSAWvJQS5Z2BdVuV-61" value="Yes" style="text;html=1;align=center;verticalAlign=middle;resizable=0;points=[];autosize=1;strokeColor=none;fillColor=none;" parent="1" vertex="1">
          <mxGeometry x="2100" y="408" width="40" height="30" as="geometry" />
        </mxCell>
        <mxCell id="Pd79XSAWvJQS5Z2BdVuV-63" value="/register" style="text;html=1;align=center;verticalAlign=middle;resizable=0;points=[];autosize=1;strokeColor=none;fillColor=none;" parent="1" vertex="1">
          <mxGeometry x="1970" y="485" width="70" height="30" as="geometry" />
        </mxCell>
        <mxCell id="Pd79XSAWvJQS5Z2BdVuV-64" value="User Credentials" style="text;html=1;align=center;verticalAlign=middle;resizable=0;points=[];autosize=1;strokeColor=none;fillColor=none;" parent="1" vertex="1">
          <mxGeometry x="2270" y="370" width="110" height="30" as="geometry" />
        </mxCell>
        <mxCell id="Pd79XSAWvJQS5Z2BdVuV-65" style="edgeStyle=orthogonalEdgeStyle;rounded=0;orthogonalLoop=1;jettySize=auto;html=1;exitX=0.5;exitY=1;exitDx=0;exitDy=0;entryX=-0.035;entryY=0.191;entryDx=0;entryDy=0;entryPerimeter=0;" parent="1" source="Pd79XSAWvJQS5Z2BdVuV-52" target="Pd79XSAWvJQS5Z2BdVuV-59" edge="1">
          <mxGeometry relative="1" as="geometry" />
        </mxCell>
        <mxCell id="Pd79XSAWvJQS5Z2BdVuV-67" value="Verify/Store&lt;br&gt;User Data" style="text;html=1;align=center;verticalAlign=middle;resizable=0;points=[];autosize=1;strokeColor=none;fillColor=none;" parent="1" vertex="1">
          <mxGeometry x="2516" y="468" width="90" height="40" as="geometry" />
        </mxCell>
        <mxCell id="Pd79XSAWvJQS5Z2BdVuV-68" value="Registeration Details" style="text;html=1;align=center;verticalAlign=middle;resizable=0;points=[];autosize=1;strokeColor=none;fillColor=none;" parent="1" vertex="1">
          <mxGeometry x="2070" y="608" width="130" height="30" as="geometry" />
        </mxCell>
        <mxCell id="Pd79XSAWvJQS5Z2BdVuV-69" value="" style="shape=image;verticalLabelPosition=bottom;labelBackgroundColor=default;verticalAlign=top;aspect=fixed;imageAspect=0;image=https://dz2cdn1.dzone.com/storage/temp/12434118-spring-boot-logo.png;" parent="1" vertex="1">
          <mxGeometry x="2544.21" y="339.91" width="44.79" height="40.19" as="geometry" />
        </mxCell>
        <mxCell id="Pd79XSAWvJQS5Z2BdVuV-70" value="" style="strokeWidth=2;html=1;shape=mxgraph.flowchart.decision;whiteSpace=wrap;fillColor=#6a00ff;fontColor=#ffffff;strokeColor=#3700CC;" parent="1" vertex="1">
          <mxGeometry x="3165" y="320" width="50" height="60" as="geometry" />
        </mxCell>
        <mxCell id="Pd79XSAWvJQS5Z2BdVuV-72" value="No" style="text;html=1;align=center;verticalAlign=middle;resizable=0;points=[];autosize=1;strokeColor=none;fillColor=none;" parent="1" vertex="1">
          <mxGeometry x="2040" y="465.5" width="40" height="30" as="geometry" />
        </mxCell>
        <mxCell id="Pd79XSAWvJQS5Z2BdVuV-75" value="Conditional Rendering" style="text;html=1;align=center;verticalAlign=middle;resizable=0;points=[];autosize=1;strokeColor=none;fillColor=none;" parent="1" vertex="1">
          <mxGeometry x="3245" y="335" width="140" height="30" as="geometry" />
        </mxCell>
        <mxCell id="Pd79XSAWvJQS5Z2BdVuV-76" value="" style="verticalLabelPosition=bottom;verticalAlign=top;html=1;shape=offPageConnector;rounded=0;size=0.5454545454545454;rotation=90;fillColor=#1ba1e2;fontColor=#ffffff;strokeColor=#006EAF;" parent="1" vertex="1">
          <mxGeometry x="3165" y="410" width="40" height="32" as="geometry" />
        </mxCell>
        <mxCell id="Pd79XSAWvJQS5Z2BdVuV-77" value="User Interface" style="text;html=1;align=center;verticalAlign=middle;resizable=0;points=[];autosize=1;strokeColor=none;fillColor=none;" parent="1" vertex="1">
          <mxGeometry x="3245" y="412" width="100" height="30" as="geometry" />
        </mxCell>
        <mxCell id="Pd79XSAWvJQS5Z2BdVuV-78" value="" style="rounded=0;whiteSpace=wrap;html=1;fillColor=#e3c800;fontColor=#000000;strokeColor=#B09500;" parent="1" vertex="1">
          <mxGeometry x="3160" y="475" width="60" height="27" as="geometry" />
        </mxCell>
        <mxCell id="Pd79XSAWvJQS5Z2BdVuV-79" value="MicroServices" style="text;html=1;align=center;verticalAlign=middle;resizable=0;points=[];autosize=1;strokeColor=none;fillColor=none;" parent="1" vertex="1">
          <mxGeometry x="3245" y="470" width="100" height="30" as="geometry" />
        </mxCell>
        <mxCell id="Pd79XSAWvJQS5Z2BdVuV-80" value="User Management" style="text;html=1;align=center;verticalAlign=middle;resizable=0;points=[];autosize=1;strokeColor=none;fillColor=none;" parent="1" vertex="1">
          <mxGeometry x="2480" y="300" width="120" height="30" as="geometry" />
        </mxCell>
        <mxCell id="Pd79XSAWvJQS5Z2BdVuV-81" value="User Database" style="text;html=1;align=center;verticalAlign=middle;resizable=0;points=[];autosize=1;strokeColor=none;fillColor=none;" parent="1" vertex="1">
          <mxGeometry x="3010" y="612.5" width="100" height="30" as="geometry" />
        </mxCell>
        <mxCell id="Pd79XSAWvJQS5Z2BdVuV-86" value="Authorized User" style="text;html=1;align=center;verticalAlign=middle;resizable=0;points=[];autosize=1;strokeColor=none;fillColor=none;" parent="1" vertex="1">
          <mxGeometry x="2350" y="700" width="110" height="30" as="geometry" />
        </mxCell>
        <mxCell id="Pd79XSAWvJQS5Z2BdVuV-103" style="edgeStyle=orthogonalEdgeStyle;rounded=0;orthogonalLoop=1;jettySize=auto;html=1;exitX=0.5;exitY=1;exitDx=0;exitDy=0;exitPerimeter=0;" parent="1" edge="1">
          <mxGeometry relative="1" as="geometry">
            <mxPoint x="2025" y="960" as="targetPoint" />
            <mxPoint x="2025" y="892.4999999999998" as="sourcePoint" />
          </mxGeometry>
        </mxCell>
        <mxCell id="Pd79XSAWvJQS5Z2BdVuV-107" style="edgeStyle=orthogonalEdgeStyle;rounded=0;orthogonalLoop=1;jettySize=auto;html=1;exitX=1;exitY=0.5;exitDx=0;exitDy=0;exitPerimeter=0;" parent="1" edge="1">
          <mxGeometry relative="1" as="geometry">
            <mxPoint x="2210" y="846" as="targetPoint" />
            <mxPoint x="2075" y="846.2499999999998" as="sourcePoint" />
          </mxGeometry>
        </mxCell>
        <mxCell id="Pd79XSAWvJQS5Z2BdVuV-91" value="" style="verticalLabelPosition=bottom;verticalAlign=top;html=1;shape=offPageConnector;rounded=0;size=0.5454545454545454;rotation=90;fillColor=#1ba1e2;fontColor=#ffffff;strokeColor=#006EAF;" parent="1" vertex="1">
          <mxGeometry x="2206" y="800.5" width="100" height="91" as="geometry" />
        </mxCell>
        <mxCell id="Pd79XSAWvJQS5Z2BdVuV-96" value="Yes" style="text;html=1;align=center;verticalAlign=middle;resizable=0;points=[];autosize=1;strokeColor=none;fillColor=none;" parent="1" vertex="1">
          <mxGeometry x="2110" y="818" width="40" height="30" as="geometry" />
        </mxCell>
        <mxCell id="Pd79XSAWvJQS5Z2BdVuV-98" value="Wallet" style="text;html=1;align=center;verticalAlign=middle;resizable=0;points=[];autosize=1;strokeColor=none;fillColor=none;" parent="1" vertex="1">
          <mxGeometry x="2233" y="831.25" width="60" height="30" as="geometry" />
        </mxCell>
        <mxCell id="Pd79XSAWvJQS5Z2BdVuV-106" value="Wallet Service&lt;div&gt;/wallet&lt;/div&gt;" style="rounded=0;whiteSpace=wrap;html=1;fillColor=#e3c800;fontColor=#000000;strokeColor=#B09500;" parent="1" vertex="1">
          <mxGeometry x="2400" y="808.5" width="120" height="75" as="geometry" />
        </mxCell>
        <mxCell id="Pd79XSAWvJQS5Z2BdVuV-112" value="&lt;font style=&quot;font-size: 10px;&quot;&gt;Store Funds&lt;/font&gt;" style="text;html=1;align=center;verticalAlign=middle;resizable=0;points=[];autosize=1;strokeColor=none;fillColor=none;" parent="1" vertex="1">
          <mxGeometry x="2311" y="840" width="80" height="30" as="geometry" />
        </mxCell>
        <mxCell id="lRMkZzCJkcgg9IVptvqz-18" style="edgeStyle=orthogonalEdgeStyle;rounded=0;orthogonalLoop=1;jettySize=auto;html=1;entryX=1;entryY=0.25;entryDx=0;entryDy=0;" parent="1" source="lRMkZzCJkcgg9IVptvqz-4" target="Pd79XSAWvJQS5Z2BdVuV-91" edge="1">
          <mxGeometry relative="1" as="geometry" />
        </mxCell>
        <mxCell id="lRMkZzCJkcgg9IVptvqz-4" value="" style="ellipse;whiteSpace=wrap;html=1;fillColor=#fad9d5;strokeColor=#ae4132;" parent="1" vertex="1">
          <mxGeometry x="1965" y="965" width="120" height="80" as="geometry" />
        </mxCell>
        <mxCell id="Pd79XSAWvJQS5Z2BdVuV-117" value="Wallet DB" style="text;html=1;align=center;verticalAlign=middle;resizable=0;points=[];autosize=1;strokeColor=none;fillColor=none;" parent="1" vertex="1">
          <mxGeometry x="3020" y="870" width="80" height="30" as="geometry" />
        </mxCell>
        <mxCell id="lRMkZzCJkcgg9IVptvqz-3" value="" style="endArrow=classic;html=1;rounded=0;exitX=0.146;exitY=0.001;exitDx=0;exitDy=0;exitPerimeter=0;entryX=0.5;entryY=0;entryDx=0;entryDy=0;" parent="1" source="lRMkZzCJkcgg9IVptvqz-1" edge="1" target="lRMkZzCJkcgg9IVptvqz-66">
          <mxGeometry width="50" height="50" relative="1" as="geometry">
            <mxPoint x="2065" y="800" as="sourcePoint" />
            <mxPoint x="2025" y="800" as="targetPoint" />
          </mxGeometry>
        </mxCell>
        <mxCell id="Pd79XSAWvJQS5Z2BdVuV-105" value="Create Wallet" style="text;html=1;align=center;verticalAlign=middle;resizable=0;points=[];autosize=1;strokeColor=none;fillColor=none;" parent="1" vertex="1">
          <mxGeometry x="1975" y="980" width="100" height="30" as="geometry" />
        </mxCell>
        <mxCell id="Pd79XSAWvJQS5Z2BdVuV-104" value="&lt;font style=&quot;font-size: 10px;&quot;&gt;(background task)&lt;/font&gt;" style="text;html=1;align=center;verticalAlign=middle;resizable=0;points=[];autosize=1;strokeColor=none;fillColor=none;" parent="1" vertex="1">
          <mxGeometry x="1975" y="994" width="100" height="30" as="geometry" />
        </mxCell>
        <mxCell id="lRMkZzCJkcgg9IVptvqz-5" value="No" style="text;html=1;align=center;verticalAlign=middle;resizable=0;points=[];autosize=1;strokeColor=none;fillColor=none;" parent="1" vertex="1">
          <mxGeometry x="1982.5" y="910" width="40" height="30" as="geometry" />
        </mxCell>
        <mxCell id="lRMkZzCJkcgg9IVptvqz-11" value="" style="endArrow=classic;startArrow=classic;html=1;rounded=0;entryX=0.584;entryY=0.243;entryDx=0;entryDy=0;entryPerimeter=0;exitX=0.5;exitY=0;exitDx=0;exitDy=0;" parent="1" source="Pd79XSAWvJQS5Z2BdVuV-91" edge="1">
          <mxGeometry width="50" height="50" relative="1" as="geometry">
            <mxPoint x="2326.3199999999997" y="845.77" as="sourcePoint" />
            <mxPoint x="2400" y="845.8199999999999" as="targetPoint" />
          </mxGeometry>
        </mxCell>
        <mxCell id="lRMkZzCJkcgg9IVptvqz-12" value="&lt;font style=&quot;font-size: 10px;&quot;&gt;Request Funds&lt;/font&gt;" style="text;html=1;align=center;verticalAlign=middle;resizable=0;points=[];autosize=1;strokeColor=none;fillColor=none;" parent="1" vertex="1">
          <mxGeometry x="2306" y="818" width="90" height="30" as="geometry" />
        </mxCell>
        <mxCell id="lRMkZzCJkcgg9IVptvqz-13" value="" style="endArrow=classic;startArrow=classic;html=1;rounded=0;entryX=0.5;entryY=0;entryDx=0;entryDy=0;" parent="1" edge="1" target="VinnBDEk5pjfKlVAtNLd-1" source="Pd79XSAWvJQS5Z2BdVuV-48">
          <mxGeometry width="50" height="50" relative="1" as="geometry">
            <mxPoint x="2550" y="502" as="sourcePoint" />
            <mxPoint x="2910" y="508" as="targetPoint" />
            <Array as="points">
              <mxPoint x="2860" y="508" />
            </Array>
          </mxGeometry>
        </mxCell>
        <mxCell id="lRMkZzCJkcgg9IVptvqz-15" value="" style="endArrow=classic;startArrow=classic;html=1;rounded=0;exitX=1;exitY=0.5;exitDx=0;exitDy=0;entryX=-0.029;entryY=0.536;entryDx=0;entryDy=0;entryPerimeter=0;" parent="1" edge="1" target="VinnBDEk5pjfKlVAtNLd-1">
          <mxGeometry width="50" height="50" relative="1" as="geometry">
            <mxPoint x="2520" y="840" as="sourcePoint" />
            <mxPoint x="2800" y="739" as="targetPoint" />
            <Array as="points">
              <mxPoint x="2720" y="840" />
            </Array>
          </mxGeometry>
        </mxCell>
        <mxCell id="lRMkZzCJkcgg9IVptvqz-16" value="&lt;font style=&quot;font-size: 10px;&quot;&gt;View/Store Funds&lt;/font&gt;" style="text;html=1;align=center;verticalAlign=middle;whiteSpace=wrap;rounded=0;" parent="1" vertex="1">
          <mxGeometry x="2523" y="808" width="60" height="30" as="geometry" />
        </mxCell>
        <mxCell id="lRMkZzCJkcgg9IVptvqz-19" value="Wallet Management" style="text;html=1;align=center;verticalAlign=middle;resizable=0;points=[];autosize=1;strokeColor=none;fillColor=none;" parent="1" vertex="1">
          <mxGeometry x="2480" y="733.25" width="130" height="30" as="geometry" />
        </mxCell>
        <mxCell id="lRMkZzCJkcgg9IVptvqz-21" value="" style="edgeStyle=orthogonalEdgeStyle;rounded=0;orthogonalLoop=1;jettySize=auto;html=1;" parent="1" source="lRMkZzCJkcgg9IVptvqz-20" target="Pd79XSAWvJQS5Z2BdVuV-52" edge="1">
          <mxGeometry relative="1" as="geometry" />
        </mxCell>
        <mxCell id="lRMkZzCJkcgg9IVptvqz-20" value="User" style="shape=umlActor;verticalLabelPosition=bottom;verticalAlign=top;html=1;outlineConnect=0;" parent="1" vertex="1">
          <mxGeometry x="1820" y="330" width="30" height="60" as="geometry" />
        </mxCell>
        <mxCell id="lRMkZzCJkcgg9IVptvqz-24" value="Transaction Service&lt;div&gt;/transaction&lt;/div&gt;" style="rounded=0;whiteSpace=wrap;html=1;fillColor=#e3c800;fontColor=#000000;strokeColor=#B09500;" parent="1" vertex="1">
          <mxGeometry x="2395" y="1182.5" width="120" height="75" as="geometry" />
        </mxCell>
        <mxCell id="lRMkZzCJkcgg9IVptvqz-26" value="" style="endArrow=classic;startArrow=classic;html=1;rounded=0;entryX=0.5;entryY=1;entryDx=0;entryDy=0;exitX=0.5;exitY=0;exitDx=0;exitDy=0;" parent="1" source="lRMkZzCJkcgg9IVptvqz-24" target="Pd79XSAWvJQS5Z2BdVuV-106" edge="1">
          <mxGeometry width="50" height="50" relative="1" as="geometry">
            <mxPoint x="2300" y="1060" as="sourcePoint" />
            <mxPoint x="2450" y="890" as="targetPoint" />
          </mxGeometry>
        </mxCell>
        <mxCell id="lRMkZzCJkcgg9IVptvqz-27" value="&lt;font style=&quot;font-size: 10px;&quot;&gt;Request&lt;/font&gt;&lt;div&gt;&lt;font style=&quot;font-size: 10px;&quot;&gt;Transaction&lt;/font&gt;&lt;/div&gt;" style="text;html=1;align=center;verticalAlign=middle;resizable=0;points=[];autosize=1;strokeColor=none;fillColor=none;" parent="1" vertex="1">
          <mxGeometry x="2384" y="1019" width="80" height="40" as="geometry" />
        </mxCell>
        <mxCell id="lRMkZzCJkcgg9IVptvqz-28" value="&lt;span style=&quot;font-size: 10px;&quot;&gt;Transaction&lt;/span&gt;&lt;div&gt;&lt;span style=&quot;font-size: 10px;&quot;&gt;Data&lt;/span&gt;&lt;/div&gt;" style="text;html=1;align=center;verticalAlign=middle;resizable=0;points=[];autosize=1;strokeColor=none;fillColor=none;" parent="1" vertex="1">
          <mxGeometry x="2456" y="1018" width="80" height="40" as="geometry" />
        </mxCell>
        <mxCell id="lRMkZzCJkcgg9IVptvqz-31" value="&lt;span style=&quot;font-size: 10px;&quot;&gt;Fetch / Store&amp;nbsp;&lt;/span&gt;&lt;div&gt;&lt;span style=&quot;font-size: 10px;&quot;&gt;Transaction Details&lt;/span&gt;&lt;/div&gt;" style="text;html=1;align=center;verticalAlign=middle;resizable=0;points=[];autosize=1;strokeColor=none;fillColor=none;" parent="1" vertex="1">
          <mxGeometry x="2455" y="1319" width="110" height="40" as="geometry" />
        </mxCell>
        <mxCell id="lRMkZzCJkcgg9IVptvqz-33" value="Payment Service&lt;div&gt;/payment&lt;/div&gt;" style="rounded=0;whiteSpace=wrap;html=1;fillColor=#e3c800;fontColor=#000000;strokeColor=#B09500;" parent="1" vertex="1">
          <mxGeometry x="2595" y="1182.5" width="120" height="75" as="geometry" />
        </mxCell>
        <mxCell id="lRMkZzCJkcgg9IVptvqz-34" value="" style="endArrow=classic;startArrow=classic;html=1;rounded=0;entryX=0;entryY=0.5;entryDx=0;entryDy=0;exitX=1;exitY=0.5;exitDx=0;exitDy=0;" parent="1" source="lRMkZzCJkcgg9IVptvqz-24" target="lRMkZzCJkcgg9IVptvqz-33" edge="1">
          <mxGeometry width="50" height="50" relative="1" as="geometry">
            <mxPoint x="2500" y="1200" as="sourcePoint" />
            <mxPoint x="2550" y="1150" as="targetPoint" />
          </mxGeometry>
        </mxCell>
        <mxCell id="lRMkZzCJkcgg9IVptvqz-35" value="&lt;div&gt;&lt;span style=&quot;font-size: 10px;&quot;&gt;Transaction&lt;/span&gt;&lt;/div&gt;&lt;div&gt;&lt;span style=&quot;font-size: 10px;&quot;&gt;Details&lt;/span&gt;&lt;/div&gt;" style="text;html=1;align=center;verticalAlign=middle;resizable=0;points=[];autosize=1;strokeColor=none;fillColor=none;" parent="1" vertex="1">
          <mxGeometry x="2515" y="1175.5" width="80" height="40" as="geometry" />
        </mxCell>
        <mxCell id="lRMkZzCJkcgg9IVptvqz-38" value="&lt;div&gt;&lt;span style=&quot;font-size: 10px;&quot;&gt;Payment&lt;/span&gt;&lt;/div&gt;&lt;div&gt;&lt;span style=&quot;font-size: 10px;&quot;&gt;&amp;nbsp;Request&lt;/span&gt;&lt;/div&gt;" style="text;html=1;align=center;verticalAlign=middle;resizable=0;points=[];autosize=1;strokeColor=none;fillColor=none;" parent="1" vertex="1">
          <mxGeometry x="2736" y="1179" width="60" height="40" as="geometry" />
        </mxCell>
        <mxCell id="lRMkZzCJkcgg9IVptvqz-39" value="&lt;div&gt;&lt;span style=&quot;font-size: 10px;&quot;&gt;Payment&lt;/span&gt;&lt;/div&gt;&lt;div&gt;&lt;span style=&quot;font-size: 10px;&quot;&gt;&amp;nbsp;Acknowledgement&lt;/span&gt;&lt;/div&gt;" style="text;html=1;align=center;verticalAlign=middle;resizable=0;points=[];autosize=1;strokeColor=none;fillColor=none;" parent="1" vertex="1">
          <mxGeometry x="2711" y="1219" width="110" height="40" as="geometry" />
        </mxCell>
        <mxCell id="lRMkZzCJkcgg9IVptvqz-40" value="Transaction DB" style="text;html=1;align=center;verticalAlign=middle;resizable=0;points=[];autosize=1;strokeColor=none;fillColor=none;" parent="1" vertex="1">
          <mxGeometry x="3003" y="1093.5" width="110" height="30" as="geometry" />
        </mxCell>
        <mxCell id="lRMkZzCJkcgg9IVptvqz-45" value="" style="shape=image;verticalLabelPosition=bottom;labelBackgroundColor=default;verticalAlign=top;aspect=fixed;imageAspect=0;image=data:image/png,iVBORw0KGgoAAAANSUhEUgAAC7gAAAfQCAMAAABlzOIIAAAABGdBTUEAALGPC/xhBQAAAAFzUkdCAK7OHOkAAAFuUExURUdwTP9lAP9mAP9lAP9qALe3t7i4uP9lALW1tbe3t/9lAP9lAP9jAOZcIv9mAP9mAP9lAP9jAP9lAP9lAP9lAP9lAP9mALe3t/9mAP9mAP9lAP9mAP9lAP9mAP9oAP9mAP9lAP9lAP9lAP9lALm5ubi4uLe3t/9qALi4uLi4uLi4uLi4uP9lALi4uP9mALi4uP9lAP9lALW1tbi4uP9kAP9mAP9lALi4uP9lAP9nAP9mAP9mALi4uP9mAP9lALi4uLi4uP9lAP9lALi4uLi4uP9mALi4uLi4uP9mAP9lAP9mAP9lALe3t7i4uLi4uLe3t/9mALi4uP9lAP9mAP9lAP9mALi4uP9kAP9mAP9lAP9mALe3t/9mAP9mALi4uP9nALi4uLi4uLi4uP9mAP9mAP9lAP9lALi4uLi4uLi4uP9mALi4uLi4uLe3t/9mAP9mAP9lALi4uP9mALe3t/9lALOzs729vbm5uf9mALi4uAj9Y3MAAAB4dFJOUwDYX+4YnVqIH0uUdBYBq1VOJKi1xmq73ZHC3Tkz+QRanCr1mQTG/ghz+COq/NhwzHgOCOMK/mbp6xJXzu6w4ZeJgPF5OtPzkEouReRsVbAZ51D9Yx7WRhvbn3wsjUEzIWWi/W2kPoS3v0C4gdAUO7/KXyanUg0LEDl4bXoAACAASURBVHja7MEBAQAAAICQ/q/uCAoAAAAAAAAAAAAAAAAAAAAAAAAAAAAAAAAAAAAAAAAAAAAAAAAAAAAAAAAAAAAAAAAAAAAAAAAAAAAAAAAAAAAAAAAAAAAAAAAAAAAAAAAAAAAAAAAAAAAAAAAAAAAAAAAAAAAAAAAAAAAAAAAAAAAAAAAAAAAAAAAAAAAAAAAAAAAAAAAAAAAAAAAAAAAAAAAAAAAAAAAAAAAAAAAAAAAAAAAAAAAAAAAAAAAAAAAAAAAAAAAAAAAAAAAAAAAAAAAAAAAAAAAAAAAAAAAAAAAAAAAAAAAAAAAAAAAAAAAAAAAAAAAAAAAAAAAAAAAAAAAAAAAAAAAAAAAAAAAAAAAAAAAAAAAAAAAAAAAAAAAAAAAAAAAAAAAAAAAAAAAAAAAAAAAAAAAAAAAAAAAAAAAAAAAAAAAAAAAAAAAAAAAAAAAAAAAAAAAAAAAAAAAAAAAAAAAAAAAAAAAAAAAAAAAAAAAAAAAAAAAAAAAAAAAAAAAAAAAAAAAAAAAAAAAAAAAAAAAAAAAAAAAAAAAAAAAAAAAAAAAAAAAAAAAAAAAAAAAAAAAAAAAAAAAAAAAAAAAAAAAAAAAAAAAAAAAAAAAAAAAAAAAAAAAAAAAAAAAAAAAAAAAAAAAAAAAAAAAAAAAAAAAAAAAAAAAAAAAAAAAAAAAAAAAAAAAAAAAAAACA2YMDAQAAAAAg/9dGUFVVVVVVVVVVVVVVVVVVVVVVVVVVVVVVVVVVVVVVVVVVVVVVVVVVVVVVVVVVVVVVVVVVVVVVVVVVVVVVVVVVVVVVVVVVVVVVVVVVVVVVVVVVVVVVVVVVVVVVVVVVVVVVVVVVVVVVVVVVVVVVVVVVVVVVVVVVVVVVVVVVVVVVVVVVVVVVVVVVVVVVVVVVVVVVVVVVVVVVVVVVVVVVVVVVVVVVVVVVVVVVVVVVVVVVVVVVVVVVVVVVVVVVVVVVVVVVVVVVVVVVVVVVVVVVVVVVVVVVVVVVVVVVVVVVVVVVVVVVVVVVVVVVVVVVVVVVVVVVVVVVVVVVVVVVVVVVVVVVVVVVVVVVVVVVVVVVVVVVVVVVVVVVVVVVVVVVVVVVVVVVVVVVVVVVVVVVVVVVVVVVVVVVVVVVVVVVVVVVVVVVVVVVVVVVVVVVVVVVVVVVVVVVVVVVVVVVVVVVVVVVVVVVVVVVVVVVVVVVVVVVVVVVVVVVVVVVVVVVVVVVVVVVVVVVVVVVVVVVVVVVVVVVVVVVVVVVVVVVVVVVVVVVVVVVVVVVVVVVVVVVVVVVVVVVVVVVVVVVVVVVVVVVVVVVVVVVVVVVVVVVVVVVVVVVVVVVVVVVVVVVVVVVVVVVVVVVVVVVVVVVVVVVVVVVVVVVVVVVVVVVVVVVVVVVVVVVVVVVVVVhDw4EAAAAAID8XxtBVVVVVVVVVVVVVVVVVVVVVVVVVVVVVVVVVVVVVVVVVVVVVVVVVVVVVVVVVVVVVVVVVVVVVVVVVVVVVVVVVVVVVVVVVVVVVVVVVVVVVVVVVVVVVVVVVVVVVVVVVVVVVVVVVVVVVVVVVVVVVVVVVVVVVVVVVVVVVVVVVVVVVVVVVVVVVVVVVVVVVVVVVVVVVVVVVVVVVVVVVVVVVVVVVVVVVVVVVVVVVVVVVVVVVVVVVVVVVVVVVVVVVVVVVVVVVVVVVVVVVVVVVVVVVVVVVVVVVVVVVVVVVVVVVVVVVVVVVVVVVVVVVVVVVVVVVVVVVVVVVVVVVVVVVVVVVVVVVVVVVVVVVVVVVVVVVVVVVVVVVVVVVVVVVVVVVVVVVVVVVVVVVVVVVVVVVVVVVVVVVVVVVVVVVVVVVVVVVVVVVVVVVVVVVVVVVVVVVVVVVVVVVVVVVVVVVVVVVVVVVVVVVVVVVVVVVVVVVVVVVVVVVVVVVVVVVVVVVVVVVVVVVVVVVVVVVVVVVVVVVVVVVVVVVVVVVVVVVVVVVVVVVVVVVVVVVVVVVVVVVVVVVVVVVVVVVVVVVVVVVVVVVVVVVVVVVVVVVVVVVVVVVVVVVVVVVVVVVVVVVVVVVVVVVVVVVVVVVVVVVVVVVVVVVVVVVVVVVVVVVVVVVVVVVVVVVVVVVVVVVYU9OBAAAAAAAPJ/bQRVVVVVVVVVVVVVVVVVVVVVVVVVVVVVVVVVVVVVVVVVVVVVVVVVVVVVVVVVVVVVVVVVVVVVVVVVVVVVVVVVVVVVVVVVVVVVVVVVVVVVVVVVVVVVVVVVVVVVVVVVVVVVVVVVVVVVVVVVVVVVVVVVVVVVVVVVVVVVVVVVVVVVVVVVVVVVVVVVVVVVVVVVVVVVVVVVVVVVVVVVVVVVVVVVVVVVVVVVVVVVVVVVVVVVVVVVVVVVVVVVVVVVVVVVVVVVVVVVVVVVVVVVVVVVVVVVVVVVVVVVVVVVVVVVVVVVVVVVVVVVVVVVVVVVVVVVVVVVVVVVVVVVVVVVVVVVVVVVVVVVVVVVVVVVVVVVVVVVVVVVVVVVVVVVVVVVVVVVVVVVVVVVVVVVVVVVVVVVVVVVVVVVVVVVVVVVVVVVVVVVVVVVVVVVVVVVVVVVVVVVVVVVVVVVVVVVVVVVVVVVVVVVVVVVVVVVVVVVVVVVVVVVVVVVVVVVVVVVVVVVVVVVVVVVVVVVVVVVVVVVVVVVVVVVVVVVVVVVVVVVVVVVVVVVVVVVVVVVVVVVVVVVVVVVVVVVVVVVVVVVVVVVVVVVVVVVVVVVVVVVVVVVVVVVVVVVVVVVVVVVVVVVVVVVVVVVVVVVVVVVVVVVVVVVVVVVVVVVVVVVVVVVVVVVVVVVVVVVVVVVFfbu/amKMg7gcF5AhNATk5AgjiAqIOAoCMgloAyUOEhDoEmAopOg0UVD2P8+sJrpZsC+yzm72/Pwgz++s7vnZT8uXxYAAAAAAAAAAAAAAAAAAAAAAAAAAAAAAAAAAAAAAAAAAAAAAAAAAAAAAAAAAAAAAAAAAAAAAAAAAAAAAAAAAAAAAAAAAAAAAAAAAAAAAAAAAAAAAAAAAAAAAAAAAAAAAAAAAAAAAAAAAAAAAAAAAAAAAAAAAAAAAAAAAAAAAAAAAAAAAAAAAAAAAAAAAAAAAAAAAAAAAAAAAAAAAAAAAAAAAAAAAAAAAAAAAAAAAAAAAAAAAAAAAAAAAAAAAAAAAAAAAAAAAAAAAAAAAAAAAAAAAAAAAAAAAAAAAAAAAAAAAAAAAAAAAAAAAAAAAAAAAAAAAAAAAAAAAAAAAAAAAAAAAAAAAAAAAAAAAAAAAAAAAAAAAAAAAAAAAAAAAAAAAAAAAAAAAAAAAAAAAAAAAAAAAAAAAAAAAAAAAAAAAAAAAAAAAAAAAAAAAAAAAAAAAAAAAAAAAAAAAAAAAACA1NuqWlpZLO56smf339MbS1XbzgsAAKTA5kpl+9TT9e6B6D1GutefTrUXV946VwAAUHq1nV+9un5jJDqQtd2v3vWKmbtbThwAAJRKVeXYlckojrXuN+0rbc4gHFLfcv/jUwfwXc3Z10mvfa1pfuIga5+amG+65lIBQGoszVzv3XuEHmDkxecrtc4kHLja53/s2jm4ueoLya1dWxhtPcTaraOFPG7uD08cicHGxi+Gf6qvH62rnng2tHz/5EUf9rIa2veS3cvT4T7b93Av5O0K9x9mf762I8i8t4tTDVEyBp4Wjc3AQVzsGdw5pNsvWxJavLBw2LV3jhXydw1O7pTIZ8deXq755f5NH/uyOL7vBcrVh7tm38NtytsV7jnMbmz5P+6B07Gzbu1B9o9+PPbRV6XyeLYqZzuiJHXMFm+5UcA+WobjBGBzTRJr3zkTqz7r+oR7oMGPn0+c/chPJoW7cBfuGQn3aCb7R9+Qp3C/VZydjJI3WbHhzgT/5V5rzPR7Hj5uvvoo5trDXwv3RJ6/n//k+H3jM8JduAv3DIT7lcwf/EqUm3Cv7RwfiI5K76tNdwt4n0Jz7OqrDy2+h1/GXnsuZ9OhZQr33354Mnxp3rCtcBfuwj3l4Z79WZnxvIR7W+WV6Eh1vLnrfgH/qqk5oPguh63dNxywduMd4Z6kubpzq7aDcBfuwj294Z79WZmGfIT79kxvdPRu/GxiBv7p5qe3Q2rvXNDidUGlOSrck7bw7bS3bQp34S7c0xruWZ+VCZiUSVG4d45NRqXxfaW3u8PfVYeVXmvIQ9pCYGYOCffE3W49U9Duwl24C/dUhvvVqmwf+3gOwr1qqiMqne6ip+7wF6tdgaF3Kf7atQuBazfm6ZcqUxLue058s+xbpXAX7sI9feGe8VmZ2obMh3tnRSmz/d3AzKL7BvxJdWjkNZ+MvXYhuDDz9Mg9ReG+69HjhzaHcBfuwj1t4Z7tWZmQSZlUhPv2eKmzfc+LTncO+MO1E8GJF/9t7qPBa78U7kema3TZ/hDuwl24pyvcsz0rM57tcG97MhCVRceUv6cKv5sOD7zzsf/T0Bq8dnOO/gxT2sJ97135/abdhbtwF+5pCvdMz8oETcqUP9w3uqOy6S26ecA7Ewm8Azxu3P2QQFpOC/ejfUVkT59NItyFu3BPT7hneVYmaFKm3OG+OXY1KqfZBx/Ar+zdDUMTVxbG8amWF18GX5YadTVajVGiCCQr6IoSJCaAQmqtuF0sYlwFirgqQpNvv9p2u+2u7Z47uZl7T+7/+QDOOONhflyfuUOiaMAC7pI+esYtHPs5cO9wrk+PMSbAHbgDd1/g3lDclSnrhXu8OtlynIlenh+ERNGgBdrNJjy2hdX+5hPg3vlV9/EsgwLcgTtw9wPuirsy7TVlnMK9vtbyIJd/4AlCyF0LsDuU8NhPLBz7fPfcCm/h3mw+mmVSgDtwB+5+wF1vV6bS0gr3hYmWFylVeISQ4POZBdadSXjs4xaOfRa4p5Lv3zErwB24A3cf4K63K1NWCved7ZYvyc/wJVUC3IE7cJe8gtzHBjPAHbgDdw/grrYr02ZTxhncl4dbHmWNugwB7sAduIv6Mi8YF+AO3IG7e7hr7cq02ZRxBffeasMnuLcyyzxGCHAH7sBdkGvHWXQH7sAduDuHu9auTFkj3HNTLd9SfcBzhAB34A7cJbk7x8QAd+AO3B3DXWlXJi4phPvOWsu/5Dd5kBDgDtyBuyTnHjIywB24A3fHcNfZlWm3KeMC7oXhlpepxTxKCHAH7sBdtP8mdRngDtyBu1u46+zK1Brq4L4y0fI0l4s8SwhwB+7AXVJ0H/ycqQHuwB24u4S7yq5M202Z9OG+UfXV7a3G+i4PEwLcgTtwl+T2l4wNcAfuwN0l3DV2ZdpuyqQO9wdDrRZyJwS4A3flcG/eec3cAHfgDtwdwl1jV6amDe5vGy2vg9wJcAfuwF34Mab3DA5wB+7A3R3cW5fU/aXjUkMX3Hs9dztyJ8AduAN3aa6cYXKAO3AH7s7g3tDXlWm/KZMu3O26fWgikxkeGRnJZEoWe/NrOR4oBLgDd+CO3IE7cAfufsO9lVfXlak1VMF9IW8D7kMj2+X7+1b6d379Rxfry0v3y4uv8u3/+dvsCkmAO3AH7rK2zGFmB7gDd/Vwz2qFe0NbV6b9PWVShftS2++lDl0oLyz/zor4T9wuVlZ72r0qUzxRCHAH7sBdJvdZhge4A3fdcM8emNYKd3X7ylhoyqQI95X2+iz5kc0N4T7rhdXFtn5HuBQRAtyBO3AXfUT1FNMD3IG7ZrjPvWn2qYW7tq5MTRPcC5Pt3Jn1VbMT3eldbKM184BnCgHuwN1vuH926I+zZ3x8/Oro6OjLvr6+/ee/HTj25tG9O52Q+73HjA9wB+5q4f6X41eaiuGubKnVRlMmNbhvtXGymc1CgiPWNxMfsrrCQ4UAd+DuNdwHE/3hY4/fnZp/v+eL6f0DJ05esSP3m2PMD3AH7krhPnv74+H1wl3ZvjI2mjJpwT13IXmBaSHp26K53uGExyzVeaoQ4A7cuw/uv0n2yPzz84PtL8Pf4o1+4A7cVcL986M/HV7xiruurkxNEdx7Eu/OuNHOYeOFhHRfZ1NIAtyBe5fD/ecfk18+PNvm7T/AAAF34K4P7vHDvU31cFe1r4yVpkxKcL+UdLV9o90j51YnEh25xmOFAHfgHgLcf8zjPf/Y28bWMq+ZIOAO3LXB/d2JXw6vGO6q9pWx0pRJB+4byfZvz1h5SXRrKtHRF3iuEOAO3EOB+4dk5/dfT/yC6g1GCLgDd1Vwvzh9utkVcNfUlampgXuyF1Orm0VLx68k6ctUCxEhwB24BwP3j3Y/PHA62fUfYISAO3DXBPfXj641uwPuivaVsdOUSQPuufVELXOLZ1YsJ1h0v0DNnQB34B4U3D/k4OjtRDfgEDME3IG7GriPHf/6N4fXDHdF+8rYacqkAffNJOvdq1a3KYg3Evyas8mThQB34B4Y3KMou+dvCW7A9YMMEXAH7krg/v7efx1e9Yq7nq5MTQvcKwlWu0esn9bWmvlvcRUeLQS4A/fQ4B5F8Z6T5nfgKEME3IG7Crg/vvU/h1cNdzX7ylhqynQe7rsZ85Oa6kRLZcb4U6rDxYgQ4A7cQ4N7FF0cPWd8C+aZIuAO3P2Hezz+iU83eAv3GcmmhFq6MpKmzKVFD+A+ZV6T6dCGLgtV0zMp82whwB24Bwj3KHp6zPQW3M0yRsAduPsO97nBTx3eW7j37gx1T1dG0JSp7va4h/s+43Xu0nLHftkx3NK9kV/h4UKAO3APEe5RfNV0g5nnjBFwB+7/yeyAQR6nc04XX356rP2Fe7QoWaZW8Q9C0pS5HLmH+27JFO4Xtjr39eyCaW3nFTvLEOAO3IOEexTNGb6kupfN3IE7cPc63/3eTHsM996u2VdG0pRZ8ADuxq/Qru128LeduG66o/t9Bp0Ad+AeJtyjG4Z1mZfMEXAH7v7mxvlrTX1w756ujKgp4x7uy3nDLWUWO/w+qKncq3VmnQB34B4m3KPseaObcI4ld+AO3L3NmT/4MrLHcO+aroykKbMdOYd7bsRwgftZ3Okrt2Uo9x6GnQB34B4o3KNo2ugu9DFIwB24+5mn3/s3ujK490pK1gruwIbg7/HAPdxXDd2+nUKlvN9sH80G76cS4A7cg4V7NGq05M5XmIA7cPcx2QPnmlrh3i1dGUlTpugc7juGu7gspvIq6PKk0UmtM/EEuAP3YOEe9Znchr8zScAduPuXuTde/meZDO5d0pURNmVcw71sVnC/kNL3jjaGjE5rHzNPgDtwDxbu8VmD23CPvdyBO3D3Lt9caWqGe3fsKyNsyjiGe78ZkIe30rp8Zg2eVzFTT4A7cA8V7lHWZG+Z94wScAfuvuVIUzXcu6MrM9UQNWUcw73HyMeThRSvn9GZvWXqCXAH7sHCPbpxUn4fjjFKwB24A3ercO+KrkxuQtaUcQv3gtGCe2MpzQtotNtNhq8wEeAO3MOFe3RK/g3Va0eYJeAO3IG7Vbh3w74y0qaMW7g/M2q4z6R6BQtVk3PrZewJcAfu4cJdgK5fMsosAXfgDtytwr0bujKCpsePTRmncC/kjTaUSblIft/kPwOGabkT4A7cA4Z7fEJ8I24yS8AduAN3q3Dvgq6MZE+ZZ5FruBs13EtbaV/DNZPTe8DcE+AO3MOFe3REXpahKwPcgTtwtwt3/V0ZcVPGJdyNFtwbG6lfxC2TPebZWIYAd+AeMtwNdnMfZZiAO3AH7lbhrr8rI27KuIS7UcO97OAqLpgsuS8x+AS4A/eA4T52XXonBhkm4A7cgbtVuKvvykj2lPmpKeMQ7kYL7sNFF9dxm8+nEgLcgbssX0jvxJUxpgm4A3fgbhXu2rsy8qaMQ7ibNNzzK06uY33S4BwrTD4B7sA9YLhf/Ep6K2aZJuAO3IG7VbjvKu/KyJsy7uBeH/K8KPMxJjvLrDH5BLgD94DhHk1Lb8UTpgm4A3fgbhXuyrsyuYm8tCnjDu6bJjvKFB1dydjgM0z5AqNPgDtwDxjuB88Jb8Vdpgm4A3fgbhfuC6q7MpKmzD7HcC+abNnibq/FikERv8boE+AO3AOGe3RU+vFUSu7AHbgDd7tw192VETRlJouO4f5WSQnlsvw0J4vMPgHuwD1guB+W3osXjBNwB+7A3SrcVXdlDPaUcQd3gw7KkMsOSsGgiv+W2SfAHbgHDPesdEfIq4wTcAfuwN0u3DV3ZZYMmjKu4F4xWHCvxS4/bjQlP9FXzD4B7sA9YLhHZ4X34lvGCbgDd+BuF+67Vb1dGZOmjCu4GzRQqnWnV7PfYMl9heEnwB24Bwz3Q7ydCtyBO3B3A3eRLP3syhg1ZRzBvT8v/2rqjOPrabDffA/DT4A7cA8Y7je+lp3Z6SzzBNyBO3C3CvdYb1fGZE8ZV3AvG7zyueP2csYF+e8Y1R+YfgLcgXu4cI9uCm/GU+YJuAN34G4V7oq7MpKmTM4t3HOllpoF9yjalp/sJaafAHfgHjDc+4Q3Y555Au7AHbjbhbvaroxZU8YN3Jf0LLh/yLJ8yZ3XUwlwB+4hw11ach9nnoA7cAfuluGutStjtKeMI7g/k8O97MElXZSf7jLjT4A7cA8X7keEN+Ml8wTcgTtwtwx3rV0Zs6aME7hLLu2/93Cve3BJDf6DYJPxJ8AduIcL9/iO7NSOMk/AHbgDd8twV9qVkTRlfr35iQu4G3w11Yt9WuKM+HwzMfNPgDtwDxbu0QnZqf2TeQLuwB2424a7zq6MZHV4yTHc17XtjD4jP+EK80+AO3APF+7CTzCxkTtwB+7A3TrcdXZleiRNmdgp3PvlL3t68otRXf4RphrzT4A7cA8X7qOyU/uKeQLuwB2424a7yq6MaVPGBdwN1q9XPbms8tdTJ3L8ACDAHbgHC/e/Cr/ARKsQuAN34G4d7hq7MqZNGRdwH5Z/0GjXk8u6T/67xhI/AAhwB+7Bwv3PwrsxxkABd+AO3G3DXWNXRtSUcQv3ZWWvpn6MwRejevgBQIA7cA8W7geFd+MbBgq4A3fgbhvuCrsyxk0ZB3Cf0bh6XZN/MYquDAHuwD1YuGevyc7tHQMF3IE7cLcOd31dGeOmjAO4j4gNXPLHwBX2lSHAHbgD9/8f4UbucwwUcAfuwN063PV1ZXqM355MHe71vKqvpv6cuKTxrAkB7sA95ZyUndspBgq4A3fgbh3u6roykqbMlDH17cJ9Vb52vezRpZV3ZV7xE4AAd+AeLNzfyM7tNQMF3IE7cLcPd21dGfOmTPpwXxMLeNinf9QGXZl+fgQQ4A7cQ4X7Mdm5fcdAAXfgDtztw11bV8a8KZM63Hfl3zKa8ekftUFXZpUfAQS4A/dQ4f4n2bnNM1DAHbgDd/twV9aVyU0aN2VSh/uCfOW64NW/anlXZpEfAQS4A/dQ4X5Ldm4vGCjgDtyBewfgrqsrk6Apkzrce7R2xTfkn40q8jOAAHfgHijcjwpfTuXTqcAduAP3DsBdV1cmQVMmbbjHE2L//ou9+3Fr4kjjAB6Tu8aSH4UEKIYkQEBjNVKCSZqIQZIzEBLbCwhCEEH5paIFRWu5//56Xp/nnrNC3pmdmX139/v+AewM+2M+O/nuzBtez/WpRXLLsXkqCnAH3L0K9wMsBwm4A+6Au31wd1RWRiYpYxruAtum7jC7rH8ht3wJzwAU4A64exTuXWzABLgD7oC7jXB3UlaG0L9/vY7YC/eb9N2XuP2Q+typIR8UCnAH3I0VMSqzhhsKcAfcAXcdcHdSVuaFRFLGNNzp09YPuF3WV8k7R934FQ8BFOAOuHsT7lFa28K4oQB3wB1w1wF3B2Vlpu7fkNCwWbgLRNz5BcXfktu+gocACnAH3L0Jd+JykHncUIA74A64a4G7c7IypKSMzXDfcfLSLAvkxi/gIYAC3AF3b8KduAFTFjcU4A64A+5a4O6crMyLPYmkjGG40yPuL/ld1/QFIa/jIYAC3AF3b8L9GqlpOawGCbgD7oC7Hrj7PjgkKyO1poxpuNMj7jf5Xdez1E1f9258wlMABbgD7p6Ee4PUtDLuJ8AdcAfcNcHdKVkZuaSMWbhTXi7+rKcML+xX5Na/xlMABbgD7p6Ee4fUtHXcT4A74A64a4K7U7IyMrsvmYY7PeL+E8ffUd/QN4/CUwAFuAPuXoR7JEVq2inuJ8AdcAfcNcHdIVkZyaSMWbjTI+63OV7YT8jNf4WnAApwB9y9CPc8rWlR3E+AO+AOuOuCuzOyMpJJGbNwv02W73OOF/Yn8krui1N4DKAAd8Ddg3AfoDWtD/cTD7invQX3NC4qb8B91hFZmRdySRmzcL+7R5XvLZZX9nXyi8cOHgMowB1w9yDcW7SmhWz9/6XXRvsfb43ETuc2E+1AoHh+vhoIzCfW594NV8eDIX/rrOBmuBeS90Ij0cE/up75/EcCnfXB426t1H9mr2s1wb0wOhYaqQ4mOoHPMa5ioL0+GB+vlZoDYLxr4e6IrIxsUsYo3H8lu/cuzyt7wdm/GKBQgDvgrrlKtKbds+s/d/g4WF0n5PAD72K1saTNq82rh3u+ORO7krvwz6XWozOtinvgXumvRTeLF3e3EQsdYiswV8J9xQFZGdmkjFG4f+vsiDvtSrjkJQmFAtwBd5fDfZvWtBPzLQv3144DgtdMaq67n7RvXlYt3LPPjgZzhE4XGyP9tmhWLdwLzeA7SndX54Ktgs/z5Ta4OyErI5uUMQp3+qosN3le2f/EFkwowB1wB9wvqSqtaX8z2qj0aCg6L33h1Ie3kvasc6YQ7oV70YzIG8txKexkuFf88ZRId6v+is/b5Ta4OyArM0tIyiz57Ib7S7J7HzLdVe8utQM/4OtUFOAOuHsQ7us0Cxts0VkonrF88ZQPxmyYhFYF96yY2v/c3Db+0fBvDargnhVT+39/ZkhVm56OvLsO7vyzMiuySRmTcI/8RGXvHtedR+mvHk99KBTgDrh7De6FHKll7ww1J3KyvXmuqFLVMdOJCjVw36h1JLvcCW44D+67wYBkd9tb9ky7CEGxzQAAIABJREFU56O96rGVPx8cptRgz39PYthaPTMLd/5ZGemkjEm43yKr9y3X4ZIe9nkP5qEAd8Ddc3A/pLXswEhjJo4S50qrPpl0HNxHYykrbyvdCWfB/Vl11UJ3M30DNtzOYb2rpw6f8yi5D9Kl4c4+KyOflDEJ92+c/2kn/evUJTAPBbgD7p6D+zStZTP6W5L1D+rQx5zf4Eoz1uGejFvt8GrMGN2tw/3k1Gp3c91dwN0dcOeelVmRj40bhPsSeRX390wj7r6r2DsVBbgD7oD7hXVAa1lLdzs2pPMSPcPQ7ZCxxIxVuE9Eiwp6nDtYcwbck8dKIlGTpj/LBdy1wJ17VoaQlLkbsX3G/ZULti8ix/QXIz4UCnAH3L0F90ib1jLNWeLlg5ROgZSnDc26W4N7pa+oqMOZmpF3FWtwDx+o6m49ZHb9fsBdC9yZZ2UsJGVMwp28JMveLNvxkv516lUfCgW4A+7egvsyrWHzWhsxEV3VbZD2mJGpGUtwH+so7PB8kzncIyWVP7FcOQTcnQ933lkZUlLGdrjT9029w3e8XCJ34gmchwLcAXePwT1Ea1hUYxN2Y6smFHJtmTfcB1RzLRZmcPVcCPdlxR80FCcNLjADuOuBO++sjIWkjEG4v3b6vqn/qefkTjyC81CAO+DuMbgTjbCvrQGFWsoQQ3JB/XkKebh/VB/xL/fzhbs/o7y78+Ym3QF3PXBnnZWhvFVcuMiJObg/Ipv3Dd/xkv728cCHQgHugLun4F4hqlnXoooRf9kgRBra14aUhXthXMtnuX2aX1Vk4V6JankzOzK1IRPgrgnunLMyVpIyBuH+gLyozArf8ZKe98GyMijAHXD3GNxLxI//NInozDBRUkM84T7R0NThOb3Ly0jCPZnQ1N1TQ8vLAO6a4M45K/PBQlLGINzpi8rcYjxgkpeVuQvnoQB3wN1bcCcGjat6pttDKeMWieldbUUO7q26tv6Wta7jKQf3jxlt3W2PGrltAHdNcGeclZld3JNPyhiEO5m8P0wxHjCvk18/fgP0UIA74O4luK8R1+MrafmfxO3ASEPrHLQU3P06319yJY3dlYL7tMZvkYupeybuG8BdF9z5ZmUsJWXMwZ0eMnnLecD8O7kbOz4UCnAH3D0E9yDxTOjYm7IZsEcj8zpXl5GAe6RW1Nvhmr6FMCXgnh7R29vVacDdwXDnm5X5sGchKWMO7q5YVMbnu0nuxjeAHgpwB9w9BPcC0c4N9YeObK3axZG6xjiFONwjfdo73KdN7uJwT8e0d/cIcHcu3ClrLtqSlbG0poxBuNMXUlzgPGCukLvxxodCAe6Au3fgvk+ds1V+5GzURo9olLs43EcMdHhcl9yF4R45MNDdIODuXLhzzcpYS8qYg/sCWbzPOQ+YO+RufAD0UIA74O4duKepi3soD5dUBm0FSV3bspDCcN820uGuJrmLwj3SNdLdbcDdsXCfvc8zK2NpTRmDcP9AFu9rzgPm79Re7F33oVCAOyO4HwDuWmuIeB42VR94bd1mkZQHmMD9yFCHNU1CC8I9MmmouzOAu1PhzjQrQ0nKLPgYwJ2+HMtV1iPmfWo3sB4kCnD/Sz2WPLaKDWWGAXedlS8Tz8OWarcnbCfJZoUF3EvGOhziAPcZU70t+gF3p8KdZ1bGYlLGHNzpq0FGWI+YP5Kn3Kd8KBTgrmaq7pqCYzfccyo4wp0627uqeAFFBm4/Pz/Vs6WUGNyfmVvHXg9lxeD+0dz3yLl+wN2hcOeZlbGYlDEG99kbVPDe4T1i3nbJLwcolB1wl916p6zg2PW0a04FQ7ifUdV4rBg9myxQoic8IgT3gbLB/uaadsN9OWOwu5kTwN2ZcGeZlbGalDEG96dk7/7Ce8Skf2T7ENJDAe5fVFvuB7U1JQPHIeCurdLk70PVTl7m53igpKgDskJwz5tN+mc0fJErAvfwvNHuBgY03jyAu0a4c8zKWE3KGIP7t2TvPuA9Yj7CQu4owF2+5Gau1KRZj1xzKvjBPUQ9CZtKs5DpYyYoOe/oiLmLwH3ccIcTFRsuov/BvWq4u3MFwN2RcOeYlbGalDEGd7p3/8F7xKQv5H7Th0IB7l/UiNShG2o+IXRNVoYd3JfJ8ep9pcftO2dTMXvh3m+8w3Hln6MJwN1vvLtdwN2RcGeYlflkNSljDO70hMl73iPmQ3JHliA9FOD+l6B5WOLITUUjx5hbTgU3uOfJQfOy0olLa3zLzQ9Wx4OhUmnsuz9qrDRUGzk43pT+wvOjnXCvdOjd3ox3j2b2S6WhmaPucSInnQ5SvTyQANzX6uRmptar45+7uz8T7A4n5L9oLQHujoQ7v6wMpUU7LOBO/6bzCe8R86pbwvoolB1wlxmC0lcUjRwNt0y5M4N7hL5xaUjlNG1SFtmpufGh1ln261fbbnOr2pH4o/NZG+FOPAPtbmn5i2ZmR6ejdbkXn5ZdcI+cEuM84/6JL+757EkoLvdZa0rbPluAu06488vKEJIy30+xgPv1Pap3n/IeMenL4/wI6aEAdxXDn7r1mrdcciqYwZ1+gpROuBekrsh6dTrZ+wVuIjQsPBVdsw/upKDMZu2iPWuzra4MZssbNsH9Mek1fWbiou42YzKvfPOaVusH3LXCnV1WxnpSxhjcvydPVH9iPmSSF6THDkwowF3FR23NnLKhIzcKuKuve0XyCZhWeVyJjTMDfSfkX13C04KfVmQ2VP9nqXBP915RJhc7ufTHjvy+xDItVbXdpcK90O49P9C9fIKgMiPxo8o44O5EuHPLyvxsOSljDO6LVO7e5z5kvnXJTlIolD1wPx8WixQs1xWOHfMDrjgVrOB+SJ+9vKIyTSL+5cPwd4LHb4pt/DVpF9yHerJ9crfnwdKljiGLWYV7rSfbR3q/Q2WnA8Kp/paeOwhw1wp3blkZSlImwgLuv5En3O9wHzJfkrvyO6iHAty/UtdE5txbAaWDR/sMcFdbSYET1K/wuAXRGeJjmaVIW5sCR0gp3hSWCvd8uVfXJ2j/0m3RH7fKYZXdJcJ9o1esJ7pLOlxlsijY3YSeNSE1w30rSql475MdtVZySwFbhzuzrIyCpIwpuN8ia/cV9yHzBbkrt0A9FOD+tYmrxgT1mJHpnOJpn3K/C04FI7iLuF3ppqnbYuf9nWRKKlsTuAJVT7kT4R7skQ/ykw84KrqLk9JFMIlw77FifYe+vE9L9OWvT8s9FLbpuP9XA70nXGx51imAO6+sjIKkjCm4v3bPWixL2DoVBbhb/UL1iJZZONGxL+ZBxfGngg/cRdye2VV44GWhN7r6vnxy8bBNv67Dav+7NLjnLw+TxUWi91nRSXeV78E0uG9cHs2KidzeecFJ99UTHTcR4K4X7lP3OU203raelDEF95/J2mW+carP94bclRVQDwW4XzDpXj7qGSvI/pu9c3GL4siiODsYWdEB4wAaYHgMMaOfiLDOKANBBT9WHuoShPAILIo8XDUqvnby36+b7G6yu5E51X3vreruc/4Abt3uquHXVefe6u+q1jVUGhpM+KsIBtwXXAoQRCtTna5M7YpVNnoGd7oLty3CwH3k2Mn+yPWVunnTFgXdIxi4Hxx7uuDaTb/drZ3OqkZHWYK7LrgH5ZWRcMpYgfslmHZfhP4vE78D9jFRjyK4f75ebrI11/5Z5ba6Zup6Wt/rbLfQ2e0vNf7ThwLuOZeueh2ST2LB5W1fiBm5DPepX5R92xC493UfV4097xz0rdtCF/xWgcC9ctyHxap78XnvolO6GtcwEdyVwf1UQF4ZCaeMFbjjF6deagpcJ+FU7hL1KIJ75lXqGjkj/SrCAPe+A5cTkRlJo0zewUNVjM9a+Q00WLs9uLcfx1pRpl7NqQ3JjNzshsD9uA46hbEoi6nDJd0lhfpUgrsyuIfklUGcMg3/iBG44xWdR6HTy/dwKveIehTBnfqEjgPC7UaCAPczbm3m+iVjzzmc7LwXiJffA6MV7MH9GCPPULT2m31tLi9WDiohcP98+Wy1JVohQ9lpIk8rrCSCuy64B+SVEXHKWIE73kPxVOj08lc4lXdEPYrgTv287T4ieq1DCOC+72YxGBANjqPWck4kYB/oqZctT0XAfeXzxx4HkbOdcvksFeuwioB77+e5/WnUuJXXLkv5BME9ceAejldGxCljBe4X09OKBe9seUjUowju1C+akjxi9w/u5a1lp/TfSF69dAy9/Z86hUKOgY0SRStwEXA/rbE3XHYh9zZLcP9s68tqjDddcbloS/yaLYK7OriHcweTiFPGCtyvwrT7Q+j08iOcyjWiHkVwp/5N0WNyr8I7uL9ynAzjsl6hATjwhljMt1j7EVG6QcD9jYqnw8U+Uu21A/d8twK3fyL3Nw7eK/E73Aju2uCOkK6JVwZxyrwQSUcC3G+m59aij+m5BJaiCO526pLrOOIZ3Nf2HPt0lnpE45fhhkOzguccOQzrJL0yALjvVHW82LVuh9MkO3DvVTpZWVvyuOVOcFcH91C8MjJOGSNwz38D0+6PodMLnstNoh5FcKf+o5Z0gHtls+SY+PBZ2RFMwB8Mog37MftITjBiY3Bv3dM6apjH3/Ky0GNuDO4tU1prax/vbFpcE15RBHd1cA+lr8wVmR1fG3D/AHP7T38KHl8uo6lcJupRBHfqV76RshT4BPfK6Lhz3jnhMRTQyLL3Ia1AKDslGDEXea51xK8pmMCjCRmSTkdOtxD/NOspHm2L4J40cA/EKwM5ZfIi2QiA+x9hbt8NH19w289Hsh5FcKfkQdobuNc2nbG9XpW+s6aCbo52l2UDQ2DZLNg/KDK4L0q0PmnF96BX7J7v72lVon7kHBxupkZwTxq4h+GVeSBU52kD7ngLxW/Dx5frcDJ/IetRBHfqV20nG9zftpbcc652Sk/EOTR0u3DgMtQBs1cuYFRwL4mMoYLb3C94BffmLyWin8G/SWVPcgjuBuAehlfmoVBtpA24/w1m3evh40uKOuRQFMHdUucSDO59758vR0i5mBOfiOhO8KR45E4k7Gn/4P5UJvwCXINcEtmDjgruQh9ouDdoXPYoh+CuD+5BeGWEespYgfsDmHUT0InlZXp60lMUwd1SJaF/+PbgPtiyFC3jOfmJuA7GnhCPXEY2ZQUvT40I7s+l3DpDcEiRr5WI4C7W8hNvXi/7NUpwNwD3ELwykFMGWbw24H6Upt7nF3dTcwssRRHcTbWfSHDfGZ2NmO9Sj/w8rIH7wN198rEPkJx9g/u42N2eY/DtuOsS3wrRwL1b7IKEE83m1SoEdytw/zqAO5iknDI24J6/D4P7s/Dx5RBO5mQTRRHcKXEPgyG4971qmY2c7uSKwjw8a/us/0sriFtILulo4P7ex5fDgi9wH96XSxcfQK/krCK4G4B70xPvXpmPl3dlnDJGO+53YdY9DB9fHsLJPCbrUQR3SryIzwrc8/MjU80xsj1X0ZiHB1jwYk0jeIdpTWwkcN8TTDc/iUZt8wXukr0Zy3A5ruglTAR3C3A/5d3ycVKsMtIG3F/ArPsufHx5Bydzn6xHEdwpeTuuPrjnd94fdDXHyrXYqTMPwS7uBZXgI0DkA6/gPnNCMt9teONb4FaiKOC+NCaZbjv8lCXDEtwtwN1/X5mHu1JVnjbgfg9m3S/Cx5cv4GTukvUogjv12z3o8MH9RE//5t5kKXaqf+hVmofgrmhOJfgOYLCXu4IpCriPyCYMF2wKtEiMAu79otnmO9C4kpcTENwtwN27V+YDcHkn5pQxAvfbMOveCx9f8K+QF00URXCnkgDutcH9iZHWwmpJJtFqa0VpGpaHsf3+MZ3wgHdk3Se4zwqX5A6iLSFvxS9PjQDuX+Vl092HyzcI7kkDd99eGTmnjBG4P0kT696Bk7lD1qMI7lRw4F6u1WprOzvzr+Ymbpye3hoovFksyubZvaA2DQexETxXCj8KuEbEuny7g3t1WzpheMv9lQdwH56XThfecn9LcE8YuPvuKyPWU8YK3K+kCdxxw/5tsh5FcKe8gbsvDW9V9KYh2FRmVCn8PBBbjCbdwX1KPOEeNHR8uHQH9yFf06tenya4JwzcPd/B9EGsp4wVuB+myRaOt8h5QtajCO5U1sD9q3nNaXjDav/395WfaRz7rDdwryo8+tdomWhsk44zuBfl243m0eanqwT3pIG7X6+MoFPGCNyfwax7qSl44eB+haxHEdypbIF7d7vuNJyGRlEqa8V/blgf6gzubQoJL6DBY9ujnMF9SCHdfjS43DcSwd0G3P32lRF0yhiB+7U0gfslOJmHZD2K4E5lCdwXn5aVp2ErNI4utfibjYOLtRZ3BfflQY0zhnUw+oA1uBc17vcqj4PR5bp+EtxtwN2rV0awp4wVuL9MU+vzVF0DS1EEd4K7lG51ltWnYRs0kha1+EBnc7F975yf6fU/GgWjN8d9+a7groOzW+jRklhDG4K7Ebj79MpIOmWMwP0qwZ2iCO5UqsH91o2ywTR8Do0lpxa/0rgBT4dULFdw1ykuWBsGw8f1yjiC+/CKSrqD5k+b4G4E7j69MoBT5iX8x0ID98dpAveLZD2K4E5lA9xnH5VNpiFWK9mrN4DG1Ytijdwdwf21UsZoR8i4FiFHcG9TShftCDlKcE8YuHv0yog6ZYzA/XyawP0xwZ0iuFME99+6jfdeWU3DN5DZW7EfZWOMnfEE7u91Es6jLRLjNlpxBPd9pRf8CIwvBrIEdytw/96bV0bUKWME7tdh1j0KH1+O4GSuNVEUwZ1KO7h3j56xm4YdzYAmFQcAeKClzh7cwP1Wn1LG5WZwBDuW4K72jmvgbWTDNYJ7wsD965u+vDKiTpngwP1kU/A6CSfzsomiCO5UqsG91DaXz9Q6ABrJr3kB91G1lDfAEXRagvsjtXQL4AikGp8S3K3A3ZtXBnHK3BVNQwDcb8Ks+4DgTlEEd4J7MsC9ODVRydo6APqav/UB7kW9Y485cAgFQ3Bv1pt46GPfILgnDdx9eWVknTIEd3c9gJO52kRRBHcqpeBenOofy+A6WLErjXUC9za9lFGvTMxrr5zAXZFlUa/MktBRE8HdCtzzvrwysk4ZI3D/Fmbd78L/2f6O4E4R3KmMg/vixkQtm+ug3PjhbPsA97OKOaNemXj1ok7g3qOYLtpGR+i+K4K72Y67J68M5JTJi2YhAO5/hln3VJrA/TxZjyK4U6kD9+GO0d58dhdC0YyhXcB9vE8xZbSvzKYZuK9rTkC0r8wNgnvSwN2PV+ak8D4/wV1jHv1L18l6FMGdShm4z85Vsr0Qlho+ogkP4H5BM+UKaB55bgbum5rprlWxQewR3JMG7n68MsJOmeDAPQFWGYI7RXCnMgzuC+VsL4T1ho+o3wO496rmjN1XW5+Jte3vAO7LK6rpTmKjuEVwTxq4e/HK/F22pww97hEEW2V2aZWhCO5U+qwypULnToYXQmOqy9mD+6puzk8tPh8cwF0ZIqfBYch8PhDcDcHdh1cGufznB5c/yK4yeuDO4lSK4E6ltDh1dWu7L6ML4XXDhyPVYtwB3A90c94BhzFiBO5PddPtAYchc7RCcDcEdx9emUPp5uGhgXsCLmDC20GyjztFcKfSCe6ftLQ1n8mF0Ph+HqGiRRdw134V69gwpmzAvbqmm20f2P9yiOCeNHD34JURd8oEd3PqUZrA/VoTRRHcqZSC+z/33acz6Jlp3CywUygSDu7d2kkPgB9zNuDe4f8d/1LvQXBPHLjbe2WOxPf4QwP3x+H/auM3p14k61EEdyrF4F6vL3e9z1pnyLYAwb1FO+l+cCBxtsJxcD+tne4INo5hkTptgrsluNt7ZcSdMkbgfh5m3ftpAvdnZD2K4E6lGtw/af1GttrM7AUI7j3aSa+BAzlrAu7q5zy9ls+d4G4J7uZeGXmnjBG4X4VZ91L4v9pHaC67BHeK4E6lHtzr9fGWExlaCBvhgfu4/qkHaHKftgD3WfVs8+PYSETeNMHdFNytvTLyThkrcN/NIrj/dEjWowjuVPrBvV4vXTiTmYUwFB64b4TwufKzChbgvqWfbgEbyQDBPXHgbu2VOZT/TrAB95cw694N/1f7MZzMQ7IeRXCnsgDu9frMZlYuVG0ND9z79bO+oV+dCoP7gn66m9hIJgnuiQP3ptume8gKThkjcL8Is+6LNIH7FbIeRXCnsgHu9fpiLhsL4UJw4L5scNyBur5jVKei4F4yqKmYM6xOJbjbgrutV0bBKWME7s9g1r0T/q/2fTiZd2Q9iuBOZQXc6/VCJqzuLcGBe4dB1uUiNpY5fXAvGKRbq2Jj6RWIRXC3BXfEK/ONmFdGwSljBO4PswnuT8h6FMGdyg6418fnMrAQDoID92mLtDuwscS4OxUF906LdMFiXAmTEsHdFtzzll4ZDaeMEbi/g1n3XprAPQHJUBTBneAup+qF9LeGnA4O3Lct0m7FxhLjMlEU3Actbg44h43lgOCeOHA39cpoOGWMwP12mjapL+GG/axdTEIR3Klsg3u9PjuY9oUwGhq4F03KgsHq1Bh4B4J7s8k/VrA6tY3gnjxwt+wro+GUMQL3e2mq57z7D/buxStqc4sCeArX4gUHKCJShOEp4wMoqIwM+IKC4mAVUUTxQSugVAUKta3897fedX2s1bUue5KcnZPMPn8Aw8l8yfpNsnO+LI3IUakEd8E91urLelymwRvcWyltb4JpKXO4X6W0+x77Z5YF9/TBnThXBknKVP5JHLi/zdLoc7yZFGwDq1IJ7oJ7vGmZoWK2T4QRb3Cvo7RdAr//8BNuQLg3UNrdB5925AX39MGdl5UxScqQ4I6nS077v2rfgJvZk/VUgrsqMbi3dgK1WS6XmyeLDdPtG21zC+Ox0H010yfCuje4kx5xTGD/zaY13DspUZk8OEVnX3BPH9x5WRmTpAwJ7vj7nO/8X7VvwdvA3pf1VIK7KjG4hxibV9gvF5+9WYjaZ38+wyeCN7iPlzh972LfffjnLRjc+0hraw5rt1lwTx/caVkZm6QMCe57MNxP+r9q42/aPpL1VIK7Kk1w/1+VyqvHayPJPcNv5p9wBvdvSH2DY2XCz1nB4N5KarcRa3ck+icJ7nS4s7IywH6dYSbGc+B+H7bu5SzBfVbWUwnuqhTC/WPlOldbh0J3+iq7J0LRGdw3SH2vfzD+dzC4t5Panf7A+ncEdzrcWVmZ1zb5cA7cZ2HrDvq/T/ML3MxTWU8luKtSCvf/3nmvaVsK2WpDZk8Eb3AfIfVdtp5xg8G9m9TuJG3GjeBOhzspK2OUlCHB/Sls3YO/3F+1z8O9HA1UKsFdlV64/11rdROhWh2vyeqJ8MAZ3HdIfYOrbsEY7vukdm9j7U4J7imEe+5XSlYGScqEcSIH7ts43M+5v2rfzdCPEJVKcBfcD6nCg8dheu3azOiJ4AzuQ5dYjWNvPSyF3jsXgnst66l8AcuJ1QruKYQ7lJUZjMxRo6QMCe45eBDLwQv3V+3XcOxnQNZTCe6qtMM9CPI1Yb78xZVsngg1vuA+R2v8N+x7D31LHIL7Lq3dDqzd6DN9BHc+3ClZme1Bo8/gwD24DMPd/ySWLbSVK6KeSnBXZQDuf9N9PURgZjebo2Wcwb2F1jg4Z6VsCvd2WrvfY+3eFtzTCHdGVsYqKcOC+zAM95/cX7VPo60Mi3oqwV2VCbgHQam+8s2ZRjN5InT7gjtvt6t27FsP/XIDBHfetrwbWLvRt78S3BOAO2OujFVShgV3GLsHd9xftX/I0C6wKpXgLriDtVlx1L2rV3A3h3szrXFwZ9NV079/itZuHdZu9F8SgnsCcCdkZcySMiy44y90/uj+qv0ObeWuqKcS3FWZgXtw6UnFYZksngiTvuC+5qjxaMpE4D4+Rmv3BNbutOCeRrgT5sqYJWVYcD8Cw/26+6v2cHZaUakEd8G9Ekn2VdjwpOBuDPc+3osEp7DvPPRkcwTuHbzvuRlrt0dwTyPcCVkZs6QMC+43YLifd3/Vvoi2ckPUUwnuqizBPbh9rbKGFy5l70TwBfcpXuMr2Hce+j9C4P6G1y44yD36fyS4JwF3KCsTJQJil5Rhwf3OQXaC4VfQVs4EKpXgrsoS3IOVqco6fiW428KdN1QmyGOTzRct4V7Pa7eErfDo4zgF90Tgbp2VsUvKsOB+H4b7SfdX7UF0KP23gUoluKsyBfdgrLWy91MfCu6mcGf+MsIetyzlDeG+TmwXy4VF34FJcE8E7tZZmS27G9UkuL+A4X7T+0X7QoZG0qtUVQr3rt1X3eVOpMo1da1DgvvXcv++opbrM3ci+IJ7DbFz8DfbvwzhPu/uijeej/o5gnsicDfOymwD93jDTlEkwf0erN2DP51ftLcztAmsSlWVcH98opLdDnPByuii4P6V3CtKy3Rlaf/UY5vFZ28WXMH9FLH9FuwrDzsEFIH7PrHdNqzdY4J7OuFum5UxTMqw4J47C3P3nPMr9zm4k6OBSiW4u6vaYuW3yAqrfYL7l4/vqKTnZylb56WHt3fK75uaisXiyOjHqvtY/S1tUx0zYMtMuB8jHpp6rP1NO7gP5YntNtr+ThHcE4a7bVZm66XdK50kuAcnYe7+6vyqjqd+Loh6KsHdXU2FC133zgnun2t/poKe+46lYHEXepuL0/VXWztq4/iaiXAnToMMgldY++/t4H6NuSj6sXZ3BPd0wt00K4PMlAm93ygL7lswd/ecX+Bn0UauSHoqwd3f66Fh5xOOtQnun+v9eFYGyxQ6u1+1tC7Gu8iIcH/MPFjg1qkP7P58K7NdcOvUZsE9pXC3zMoASZmX98L+6mbB/XcY7m+d6+XfaCPvJD2V4O6troa/QVmYEtw/17MKml7Mu1zPue8m6453LFmsMiLc25iHrIi1P2oH9xZmu6O2v1ME96Thnrtol5UBblZvhT4oLLjjOzAdca6XPbSRu5KeSnD3lpOJsh/QyqLR/7U/AAAgAElEQVTgHupXzHt3a3ll8tnujN0yI8L9CfOwNWHt19nBnfrCxAms3QbBPaVwN8zKQDNlQt9FYsEd34FpK/BdZ9BGrkt6KsHdV81EGyq+syS4f6reCt7WPe5pGed6ixvXjNcZEe7TzGNXxtrvt4M7c4x70E2KggnuScHdLitzB0nKhP6/WXCHAybud2CCnx38GKhUgrurGon4Jl+P4F6Jsj7VkptNmB4+aJkgrDMi3IvMw9eJtb9ht6SamO3OY+22C+5phbtdVgaYKRPhJjUL7vgQxcEB33r5BW1EG6eqBHdftViI6r4uwf1T5SsIy0x7WL+F+XrWEibCnRpD2gdfJLGD+yaz3R2s3R7BPa1wN8vKbB/u9vAzZXhwH8AHuTsff343K3MtVapqg/tq5GOwIbh/uf2KB4e+SXzxlmoa+3gLjQh3qmSPYe2HfWEWgHsvs91e0kktuCcGd6usjG1Shgb3YBiG+yPfejmdlZ2kVKpqg/ta5GMwL7h/rlwFwaHeRFfusfW2IepCI8KdemQvYe2HndkIwJ26J8Ca7QMGwT15uFtlZbZsX+ekwf01DPc7getCt5Ia1P5LKsHdVS1HPwaFLsH9izfwuSyryS3bQnNjF3ulEeFeYh7LPNb+nBnch5jbTQUrtg8YBPfk4W6Ulblnm5Thwf0WDHfn01hugm1cFvRUgrurimNyXqvg/qWm4b6nklq0mz0zCaw0Hty5kg2wdFTYTaEOh/sEtduS7QMGwd0B3G2yMsZJGR7c4XmQL33Pg/wL7eOHQKUS3D3VaAwH4Yng/qXGatG+xxOZKzN2YjmZlcaDO1eyAfbsYsEM7svc9UP6VSq4Jwd3m6yMcVKGB/dH8B33i67x8lT7L6kE93RWTQwHoU5w/6pW4cbX+eu1t34mqZXGg/sc95hiR3TRDO671G4Ltskgwd0B3E2yMtZJGR7cj+LzIP/wjBd4IP0tQU8luLuqSSpVqwHu+C13+h5M5bbx5FYaD+5cyQYTUPthHwMcDvdGarc5bAlFfgwguCcId4uszJ2XtkkZHtxzN2G5v/CMl58z8o6tSlV1cI9j85ZRwf3rgh9AzOSp4mpuTXSl8eDOlWywgH3ZZnCv57aLJYMeR/0YwT1BuFtkZayTMjy442MUD/Y84+VtRqZaqlSCu+AetfAdqYjzxvM1ywmvNB7ce7jXgA6o/T4zuL/itoslgzoE9xTD3SArY56UIcL9+kEmQibwxqka464S3AX3jMM9aEE7p22emut+nPhK48GdfAsa+0XUZQZ38ha8WDJoIerHCO5Jwj3+rIz1TBlmVAbOmPgeK7MFdnF2QNBTCe6Ce8bh/hztvJW0SstTDlYaD+7PuNeAOaj9ITO4N3iE+6Lgnma4x5+VMU/KEO+4z8J33K/kAr+F7r80LOepBHfBPetwz6G3t4fGGGu0s83FSuPBnZwdwb7tJTO4k4cT1QruVQD3WzFnZZCkzM9pgfuFQVjuRwO3NfAS7EHTIFWCu+CeebjjB2Te/n8pPXGy0nhwJ29Jey3hqEyR226fojLZh3vsWRn7pAwR7sEwat6D+37tAo9xvyHnqQR3wT3zcH+ITl20vzfcNPGh6uA+wr0GLCb8cmoNt90hqN1rgnuq4R53VsY+KcOE++/wHfe3fu1yPxOjcVQqwV1wj6fQwYvWIfe1N35WGg/uJ7jXAOynkd04yCZqtzns29ZUmXTDPYg3K0NIyjDhfgaGu+OYCdyE62H0KpXgLrjHUyNg610FU2Ot932oRrg/4F4DsPmItWZwb6Z2C+6cqjnuKYd7vFkZJCmznR64P4LhftGvXdChloN/ynkqwV1wzz7cV9CszHPDf6J01dVK48G9m3sNwMb22+2cWqZ2O4Z929o5NeVwjzcrQ0jKMOG+nYW3U9FpkCfFPJXgLrhXAdwDdP6i4QzuzYUPVQr399xrwJLp25qHw32T2m0J+7anBPd0wz3WrAwjKcOEezAMw/0nt3a5mP60j0oluAvu8dU02Hub1T+Qnx76UK1wb6ZeAvK22ZHD4b5DbRc8zSK/vSG4Jwz32RizMkBSZjBqUoYK9wzsnfoH+tTghpinEtwF92qAeyfY+4zRBh1jBm+ldi3O7bY1Nm70t9f9s35zBHfu25qXsKM3l5E77mukX6SCe8JwjzMrw0jKUOG+B8P9tFe6wLtIfRuoVIK74F4FcM+hOZVeG13NxbdC+paP949O7nz3/zeLaq/ajLvxLWhvGffbWLtXBfeUwz3GrAwlKUOF+zkY7mcvOKXLHbSDp2KeSnAX3KsB7kE/2LzJBJRTi7Gsja7lxummXuyZQL0juHMHm/fa3oI+HO7z1HY3SSe14J4w3HPxZWUoSRkq3OGA+MHBrFO6HAH//5u5QKUS3AX3aoB7M9h8v8FnT3ZFXhZDc/01+/kKPrPHEdy54yB3bNedt3GQ4MJ+IrinHO4xZmVOH/53XlMkGh/cz8NwP+OULu/SnvVRqQR3wT3eKoAj1Ofi/+j18Yho3119Plbphz5xBPci9RIwjx3VDTO4c4fo1GDttgvuaYd7bFkZTlKGCvccHDTxOpRl4Gza365VqQR3wT3mOg4qeSzuD47m9omNyVKYT91wBHfuzqnd2IENy8zD4T5JbRfcWyzynFPBPXG4x5WV4SRluHfcX8BwvzngUi5wA3uKyqgEd8G9SuD+H/bOhSmKJIvCtaCDyjT2CqvoQCuI8rCHQW1eIggCysPXgIiMKCMvEVTUwbH497sTG7ExsSH2ydfN213n/IC6ebOa4quskyfRw1N9H8Hkwu1PVj8ULMueUQTu9aKPgA1sbreDgbuspR8MOt0guFc8uPvyysg4ZWTBveMeTO5vVZILnIvzipRHEdwJ7hkBd3DPYtrnt+yANbe3Np4u2NdtUATuE6KPAJBke4OB+4Zou6ewdp3fJgju0cHdk1cGccr4WNYVBffkDQzueyrJBU2i79b5wYCiCO4Ed/9CAyFHvVZdtOX2kY1hp8KjisC9WfQR0Bw2Pqhe+tWvjDaxdvME98oHdz9emS6ADj04ZYTBvQsGd527O9GzX3cSiiK4E9wzAu7Ads3/2lN81tyyy5Ppb3Q27DQqAvdLoo+AlbAkWx7c60TbBfduOB/nSnCPD+5+vDJX1kWcMsLg/gIG9/X3iT69XwdHP07IowjuBPfMgDu4aTFd81dybcjKI7Pi4RSoXUXg3iD6CBgNS7L1GgD2b2rC2v1McK98cPfilTlxVSRTRhrcDZLcHyoEl18refAURXAnuIfRj6BrxV8oyHWb81LbV5d91N5XBO67oo+Aj2Hfz8pvct4UbfcC1q5zWBLBXQG4+/DKdK3LOGWkwf0ODO53FILLODr4EwlFEdwJ7lkB92QEG9Cqr3q5RvO5L15a9lP8vBi4l/+S0ST6CABPqS0FA/dRyW5zmBmr3f29l+AeH9x9eGWEMmXEwR1esz4cVBioeAUc+00yHkVwJ7hnCNzBXYveMLPXfOr323wVb1IE7kuST4DOhbAk26uLHcG/sgsE92oAdw9eGcQp86kSwf1LN0zuU+q45QY6+GtkPIrgTnDPELgfgBbzgp9ybcYbU594PLpnWgzcb5WtNCT5BFjD5vq57fU3dL2ntEi9jRLcNYC7u1dGKlNGHNyTHRjcx9Vxy1t06F1kPIrgTnDPELijJvcWL9UKH03nfdPnoa1PFIH7QkHwCbCFTbY14G3oek85jbXrvj+Y4K4B3N29MmJOGXFwn4TB/Zw6r8x9dOgvyHgUwZ3gniFwT5awEQ14KTZhOOtDea+9toqBe758b8cEnwA14FuS7fUXy166X/I9pR5r133jBsFdA7g7e2XknDLi4P4KBnd9p4+iKe63FdrzKYrgTnAPp8vYiFZ81GoxNMqcX/baaikVA/e58qVmBZ8A29h8b9te/6Ku9xTwN93rXIjgrgLcXb0yiFPma2WCew4PhNR2eGoPOvBHRDyK4E5wzxS4g0nu0z5qnTeb81XPq7TLcuAOeFPmBJ8ADYE/qxzoek/Zx9o9ILhXB7i7emXknDLi4I77TQ7fKcOWB+jAHxDxKII7wT1T4P4UG9GCB6/5gdGMt9b4brVFDtyBUrcEnwBg6Kf1u8SMrveUeal9GwR3FeDu6JURdMrIg/sU7pVRZhV/A4+bVhmK4E5wzxS4J2PYkF46Fyo8N5nw2i3vnR7IgXubhFEDX5Fsx+bc+iTRl+WvfVGu3RK44XqY4F4l4D7ltKAs6JSRB3cDr8y4KmqBwyAHye0UwV2jfPzT3ya4f1tnsCHVOxfaMJnvJwGsFX1y4A58x1iVu8XL2JwXO20LAB8Y+uTaBdMga90rEdx1gLubV0bQKSMP7gZemZsdmqjlJDrsP0h4FMFdo3xEmjQT3L8t8Egk5+y84SGD6Z7/HKDTS3Lgfl0ijBDWDDbp9gcSATnxp+TaBTN0PhLcqwXcnbwyiFPG20DlV9wNvDLPNFHLa3TUPyQURXBXqDoPk9BIcP+2PmBDGnOtYxIFOdQWotPzcuAOJE82yd1i0Ca2a/9SVv7io3LtrmLtbrpXIrgrAXcXr4ykUybCiruBV+a1Imi5cRsc9Pr7hKII7grlg2MvENy/rU4wo9Exz69ksOBeG4TbkT2L3sC9fLfzcrcYdEPZQ2ZuoezFR+TaPYu1O0Fwrxpwd/HKAE4Zf4GD8uCe3IHB/d4XPdDyEB30FQIeRXBXqbvuuYBrKcH9CIGRI3m3Kv8yyJPZCtLncL8guJffiFuUO5JoGpt3h+2yteU/osj9oMFXRA87ZwjuSsDdwSsj6pSJAe5vca/Mp0SNrqFjniTgUQR3nZpxnoNegvtRAo+r2XarMgJPdX+gABLE6e0N3JvK13oqdYM7i8H/yoDAoJJUu+DfmIc0SIK7GnC398qIOmVigHsH7pXZUcMsX9BMGW0hlhRFcPe2kS83TXA/SuBevl2nIi34VIeKW5mQBPfR8rW2pG4wuIshdTinFtg+0CbVbj50hg7BXR+423tlRJ0yMcA92avAKPcf4Cgc8h1FcFeqomvISD4luB+lNmxMtU5xuafgmW4KZSE5KwnuQL+LUjcY/NrkEo8IHM2al2oXDH5d8lCK4K4F3K29MrJOmSjgfmIdBvfjWpgFPn3pPvmOIrhX6fbUzn8Q3I9erLqLDcrl5Sk3j0703acx2/QG7sDyvliQO7g31QXvgPeUPql2wb2pPuI4Ce5qwN3WKyPrlIkC7jgFH3YriWh5DDtlXpHvKIK7VvXXOM1AXUpwdyYdF+v5T/BEBztQFPqw4A3cBxTdZDBQyYUxfyt/+U2hbgvge6iHUBmCux5wt/XK/CLqlIkD7g9xr0yXDmSZRMd7jsemUgR3vWp3OUkzv0Bw/45Ab0Fz+BJpOhIsa6VeFNyBnbBjQrcX3azpcswZsE/io1C7s2C7eYJ7NYG7pVemR9YpEwfcOwYr7PTU3Dl0vHsEd4rgrlhP7J0aW+0pwf177zWg+dyhRBM6z3PButyXBPccsL7fL5SzcksgZeUl8Oot9C92A2zXhyWL4K4H3O28MohTxme6eRRwT8bxJfdfNRDLSXi4zJShCO6qVWvLdAceuL2qwR0cVKv9YngJPOQp4HGiw62S4J5cl8kjRATGfba6pKysCZEyoFGsXS+58gR3PeBu55URdspEAnfku4Km84x20O20P5PuKIK7cp97vQ05lpr7U4L79zUWekl2Dp3mmWA9YuvO3sAdOQXooszdfQ6alFxqFICo+DmRbgu1gn9iBHc94G7llZF2ykQC99wOvuR+Mj6wvIAHy9OXKIK7eo3MmH5uL9SM+Sld1eDekAam2npwli+Es1OsCIM7cOBUs8jNfQrO/eXQ736/ibSLHhjgY28qwV0TuNt4ZaSdMpHAHY9F/88UxXeNv0bHun4ioSiCu3ot9c3iz5XCT3XzvgpXNbiDXL1iXeCMJE19U521wuBe/mWof0Tk5oLnazntTYV2EOxq+i37iZUnuCsCd2hH4/95ZaSdMrHA3eD01MOHsXkFN/a8IdxRBPcK8bo3NaxcLq+V0ZF2j1WrGty3sFFNWxcAz63tD2eDBndo+gN3IEeneF3i5oKfU9JZpyqAkf5uQaLdffCn9iPBvcrAHdqCOWmMiH45NhK4I58W/ucbjx0s8xo+MErFTlqKIrhrVVWDe6kIjWrBFjRz4CtUwCXoXWlwRxa6JVzfnWCsudvBuNDprLMC7Q5jP2Uv56YS3HWBu7lXRtwpEw3c/7yNk/unSllwH1SRXUlRBHeCewRwRwzZf+ll2K7T7WANLhelwR3xWk8I3Fp0X/CoW5kZoMSGQLsXRRz9BHeN4G6eKyPulIkG7skeDu43b0TFlUfwgvs4Q9wpgjuVWXAHEwPrLS+Pnpu6FazBvlQa3JE8yH2BW9uchr23MD16+xv6rtDdFDVeqhHcNYG7sVemR97xHQ3cH3fD4L6+F5NWpuBxXmWIO0Vwp7IL7ovYsBosLw+e8FQMdyLRkji4J8C+6PbO8Lf2Ath5i9vqVQFwQ82H7xY1BnkKlSe4qwJ3U6/MJOCU+bNKwD25gy+5d/fEg5XcFXiY3JpKEdypDIN7GzassbDvBUvB+nuZyoN7Y0DvES40HdF55yhyNm5b8HZn0rC/ZIK7ZnA3zZUBnDLXPE9KNHDP9azj5L4Tz4PyOz7KZ0Q7iuBOZRfcc+BC5TG7y4MRfZvB+muIAO51QLnwSe6rMhb3JDkFFAmf5L4panEnuOsCd0OvTASnTMQV9+QRjsTebwys94N4+g3JjiK4UxkG9+QsNq683dUnsKsH26t5rDUCuCMBlGOhV7Zy6EEGA66VkBSd4MH1JTQBNu+nHsFd14r7KyOvDOCUuefZKRMR3HOvruLgPvg+Eqscx8f4O8mOIrhTWQb3bWxc20GvPhCqu4k0ArhD9qOWwPcV9gg5e75ngSIBc/rxl6W/1OopQb9CwL0pKyvuiZFX5p28UybmirvRkvvxOKjyDH+5GIybfUNRBHeCe2RwB7ePWh5+Cfo1ZgI1V5iPAe7Ids3ggZCXwL6nZdoNHQg5CrbrK86nQsB9JMq/nRjgbuKVieGUiQruLwxc7lejGMi/GhzwGjX6hqII7gT36OAOjsvylB4Q3EMtP59OY4B7cl4EmL+rEhqysupeq0kQmI/6FaOWqHpPBSsE3Kej/NuJAe4mXpkYTpmo4G7iQzkcfBzhJ4OfmXp4+yvBjiK4U5kG92QMG9hnq4uDVplQoSMf44A79Lryz6B3dRHt+4N7LWR3anE4aLtoWr/lz7hiwf15ZsDdxCsTwykTF9xPdBuQ+478saQPDYY3Sa6jCO5UxsEdzF25GBKo1sK0NpPGAXdooT+sV6YJbHvewyZZ6CUhqFcm9xxs15t1pELAfT7Kv50o4I57ZaI4ZeKCe3L/UDMa99w2+CDwhVxHEdypjIM7mNhol1/Yi118OS69+gb3pxAyFwLe1Fm07WapYkFNG3Nou95iKSsE3FujxHJHAXfcKxPFKRMZ3B/fMwD3q1Oyv5cbv3DBnaII7gR3XFvYwOzyKQZirrjPpZHAPYH2xOYD3tRTaNsenDLY7tT0p4DtnpF2ylQKuKfDMf7tRAF33CsDOGX+8D+8uOCe7Jksud+UzYQ0cuBzwZ0iuFOZB/dSERpYq9UCcQ3WdRCPe2EkGrhvRr7Vw2iq+byXFdldpNRKuHbXimC7/kJWVID7WrzdIwrBHfXKxHHKxAb3r4Mm5P5G0ub+wGRkD0h1FMGdyjy4JyDfWiW/3Ap4bU+r/SHAHXJ9L4TLNofj6+u8lIPcVu3hFn/h7wv13kqqAPfl8h3PZQfcUa9MHKdMbHA3w+PDO3K/FoME98PDnzsSiiK4U5kH98sByRbcHhoCL4aH4oE7ZHIPtz21BLfuxzrSAtUKtj0V/r5QPFZd4D5cvuWBGP924oB7DvTKxHHKRAf3jndG5N4l9WOZMnHfH0YJmacogjvBXRm4g8mBVlYHcJPkYsxl2ADgnkApJ/Odge7oxr/ZO9eHJpYkiregguJgVETUZCRBCHiB5SmJPAWUp4BoBOQpT4VVWfR6h/9+Ue91V3xQ1dM9XQnnfPTDdFdPGX5dc7qaGrShizW9YtLxVFsHJcnfF3rNjSkC3DuiOXycJ+BO9MpQnDJPCxDc1TCnsn1YtxZNriyyLDxTYDoI4A4B3JVK0mam1RYkS3u2hdrz8qxLcL/obL9ypHQfNWhTE6AdDo3ZCbeV/H3B4AREgLt/csjvXfzZcQTuNK8MxSnTVojgrj5wEHm97mkUqcLj9oZ7YDoI4A4B3JXyaJdszrbqPJzmYtg0T3N9gUtwpzW0OWOnI2QzNeZUq6ER70RZ3z+uEmq4MwaXWwS4q5MP5WZOEbiTvDL1TW6cMgLAfbqHZZZpuBAFt7M+A+w56W4KQQB3gLs0cFeVtKkt6zw7Z6+a/1ttBk7B3SeZR4IHNl5ntpgac42xbVLCXgadpOdUh3uwbXBUGeBOCH3VwQ+KI3AneWUOHTllBIC7t8ZbhoYnthNlhVVvP2xqUxAEcIcA7kfattiSg7YpaOwwHNKdwC24EzcO8zZc7kvUkDvN9QokNYQM9m0UzMhbtITJa75kgDvBJPTMwQ+KK3BfMcPtVpwyAsBdea95C1F33nKesM6lHq4Po+AOAdwhgPuXn/MYbWrlOg+vtljN/7XGUq7B/TJtVAudVlYT1JB3zQ1KbL15x3y4cfJZBqN+LBng3hfZz1degDvpDiZHThkR4H6vgUnuVq8pXVvnzWYEQAcB3CGAO2tqfTrPJnb8MHs6NXsrcA3uadrBgYzx5ubeLjnkUYMrTtst3DL+hcHfJ4dr9LIAGeBOCD7joErpDNwH5DplJIA7t5n7kc5Z65t+l/uybuDOVAjgDgHcGYW7z9Lpgk2s5nebDMffDZyDO/VTQ43pd/mMHHHOJNL1Rm8z/6IWcrg3jY4rA9wpq/7uFIH7ilynjAxwv7vDXY3X03ZmMl3LnEgdWrhDAHcI4P5N5bS5xTQePUdcZYNn6LzqQAC4bxF95oZNQnPkk6lmfSsfaWM2jpkN94DsCzL5fUEMuNe42BoKBncjXhk7ThkZ4K6mu7jL0T5sYx5P2fOAUQYCuEMA9/+pjDY3rXLpDO3ZLeaiKQkkgLtHtOvkzLpHrpEDnjfaizJN3DBUGB3VryCHu2/29coAd4oRrTgd+e+JO3AfEOuUEQLu6gl7PerqjbutPvWzZ1F7V0EQwB0CuDOrw1qHGYkk2WcM6JoDEeBONnEYBTxG8EVmw6X2sjF6mmGbHm6sEMGddCb4QeS/J+7AfUWsU0YKuKsR/pK8NjyxF/wPI12lCoIA7hDA/Zs6GklzK9apvDyMGKyudwoB92wieqTcojtH5g1f/nSF2N2lccvcmDH6u+42XDWUAe4xF6FLBncDXplXlmYmBNy9u7Uam5k1gzn09hV/AuswuEMAdwjg/p26aZM7sMUWgbFrNcs0ud08uKsF4sjFV0yNODdDj7fIdLhUk87EWVMjHgzSwx01HK0McI87iV0yuA9IdcqIqbir0i6NValdNDR6W32PxvBD6OAOAdwhgPt3qqFNTuc44yUqSRspPD/Ufs3mwT1OHTrXambANN3xbaEMO0odusKQ6bo1Rw+30nS0MsA9G+WeOC/AfUWqU0YOuHsv1jXWpWHkrYmxz2t9EumHwR0CuEMA9+9F7CFYZbGaH+TCezf8i4EgcFfvqWP3GrGt+L2McJeNR+s9oo69YGab8p4e7WzcdLQywJ1ydWpg5d4rqeAe2itjyykjB9yVqtdamZ6hsHsa70mTXp8f1NshgDsEcD+mpEU7C/XUYlAWuv64G4gC92Xy4DUG/jJ5m4xobaTZA/LoJrq5p68xwt00HqwQcKdtXsxf8yUX3AeEOmUkgTtlLj/tDDn5KcSgf05qbqqmUG+HAO4QwP0H6KO5hRM6Jodx6kInkuGCuJILZIG7oltXSsK/whpGsI1JC9H69F+bsvCDlTPCTT0vVHAnfmKqPj3gHtIr02PLKSMK3HUOqH5t7jKkex/TYv/jdb0xX7eh4A4B3CGA+w+qpM1Ox3HgZ6gr3R3K/Hy5OJAG7qP04cN2SfQ53G5gn/AzFZHH7wy72umrnHBbzMcqBNyp9+RG2xLSJbiH9MpYc8qIAnf1tkl3gRqmLvAL4KX1/z7UxPbDqTYFQQB3COD+g7Yt0u0CealDmJ/TNSFfsw1w9xinRZdClZU6OMaRoK/DShL5uahYOnuTE27OwhVEQsB9jPrNIRnlr4lTcA/nlblwOsBdlbbrr1FXP4fd7w7v/atOf7ARlNshgDsEcP8ZYcYskvVoBDg39igQCO7qNqM5ZU2IE6pz3axYY5bSKMaYQ0mIP8gH85xoO7cshCoE3P0UcRHmL50WcF+R6ZQRBu5qpSfMOj3eqV8hwPufb4amQo2zPgmIgwDuEMA9zOweacEF2SsTzOp1F+8oaQxEgrviOLErtY8QvptghdprLY0YjV6Ccu2y/3iGFW61jUiFgDvV43b0XzdCcncK7qG8MvacMtLAXb1pCNs4s7Z/bfgXlndveuX8wB9N62GHCHVUuO3tveEXuLkJArgD3AsU3FUfDay1Oo4zmjTO3tcBuVsnU2K3G3C/kmBkWu5Aawx/m7dtycxZy6L4LGMe+3pHRtNVvDu2Jqy0VJEC7i8DgeTuFtwHRDplxIG7ehGW3L+yddPOq5GhybW1J0daW5scGjk3VXvDyKMPa+/xQH36CNTPr9UP9H/YqW1q/zqHJlAgBHAHuBcouBNLw1rtv+OM1e5s4T59jNAE8szJFng74E49PPC3E1ln25LsZib0ZYtpxDppUKxzZDLO7B3UOW4lUCngfpu+ErfiUf2YuAX3EF6ZHouNB8WBuyFyXz/xH3QfPHDC22j7a3px+Ol/JvdGXk19A/XjArhDAHeAe6GCexltenp9/HJpg1QAABV2SURBVPY5613Oquo/X6AUeceVK3BP8+zYvWeZz+94mWLm84LNNMrO8ObCrYa3liSY4S7ZCVQKuPuMXkqJjVMB7kq7Y8rhOYuzkgfu6mnDoVzdGD4+3U9HnH7h/OTQQP8fO7VNXQ2kbQLAHQK4A9wLFdy3iFSt9fAi1oKfoVcGxzZJHNernIE7vY3930X3Fk4LFK9ogpvOt1qt5tEd3myKNzhHcv3rGW64j9J24pQC7oyeTUfajaa5jGNw35PolJEI7qLJfaftU+k3UH9de6NLb64AdwjgDnAvVHDvoPmk+/TKzjy87LxIKsT6MeLJvNSqQ3BXm1yyvk9lTW+0m53NiduWE4l7e22uiBzuZf4NW9baIEoBdy/GWo/GGrrT3dsazU9wX5HolBEJ7urNY8E1dyOmG4A7BHAHuBcquCsiA57Vengzc80zLSfWhZNL5N3AZ4eAO3DP9nEzLvOQcny09ZlOC8z7tvNojn0P1kQLBSazG/P8aDutXTwkpuKeHmRuZappH7TiVRNBVX6Cu7ZXxqZTRia4q5Wuw8IWwB0CuAPcCxbciccKY3r1fLbFYbDkN7VSL/6QUWvu9ZyCu1qeZefc7Pv7v//okB5dSOkkc7X9RLrMn1XjbtHvw+34eDWhE26JtSjFgLuqZq9KxcbqCZuB8aUvu6Q8BXdvT6BTRii4q8V2gDsEAdwB7nkJ7sTL07f1nr6hsfCPXt7+iQHaH3tWzXLefG0H6BDc1ZJO2s12V8V+/nnDjzf3pvRyuSIdQSYt6Myscb9k9Ofwno63XNMMt9K3FqQccH+nszK5pY+/gHcv2bz7z3Lna8V9RaBTRiq4q7e1AHcIArgD3PMR3JPE4216T/fntdY+dbNqI5Z8nk2rjuzqwXLRw+qbXIZr3KJ9ULAI7ukK3dzLvL9YVjSeXM1mlZd9fhAfLyrpPaN/2VTfXBSZ1JrTDrfyYvOd5aP3/SXcZHz82dK1ef1wc1l7QcoBd0/30uDi9zUvPyfXpezn7Vx6LrlV9HJh////f+UruGt6Zaw6ZcSCu2r7AHCHIIA7wD0Pwd2jeWWLNW+q/+jq9TUr5+Cu5mZEZHLmIJpUOhgUEe7Ec4sxygF36rcyDeUtuOt5ZexesikW3JW3tw5whyCAO8A978Cdenm6Lvxdc/P2/mnj7RTc1VZCQCKnbkeUSV6sU0C4g2M2YxQE7ukZgPuxBFyU55QRDO5HL6wH4A5BAHeAe96BO/GOzzuaj19NOXl5nghwV9fd53FjLLpceuk+3MSy1QgFgTu7Z1PhV9y1vDJ2nTKiwV2V1gLcIQjgDnDPM3CnNoTW/WNuDy9+o8pvhzEdgzt1W2SR2x9EmU01zrl91G6AksA9PQFwP6Y9cU4Z2eCu2kbqAO4QBHAHuOdXxZ04wQrtnUFl9NzeSidJy+DuGmUTHyNNJr/csS1o3HKAksCdeTPxaQB3Da9Ml12njHBwV+pFO8AdggDuAPe8AndFuygood1RcC4T8ZsrTzO42Ta4u0XZiLldqXRlQXO7LHD3KgDux9QkzSkjHtzV2ymAOwRJ0CNwd2htnhZwJ5JlXHuA8dlIX1y1zyl42wZ35V91CLKxyLMpfc1duIPL1sMTBe5qLAFw/1570pwy8sFdqaftAHcIcq8KcHdoGfoDLB/cy2gzDEG4UZ5Z7Nz+rnGle3BX/oKrFM7EHaRTutdVuH1J+9HJAndL/7PyF9z5fWVsO2XyAdzVX/11AHcIcq1ycHdotZwWcN+izXAhxJ/T6IrOqWNnMQWAu/Kq3GTwmVXPRT75m27C7Y7imilh4O5XANz/y969eEVx3XEAHyE9eAL7ACQ1Cmygjz3Wd7oi4AG6VNLNYgzhUVGgpAFJKw0aTtvTP79gX6ZRGXZnZ+7A5/MPcO/dmct37vzunR86ba3MXKfvkTwE9yj6/U3BHTJWl7vbVj4vwb0W7xuVC+2swqb1CujC/y+6hhDco2jnRgYX8MupjC6oQj2L89wH76bRt8CCe7S6JLj/wH5glTI5Ce7Rz7++L7hDprbk7nbdSCj2hB/cowexWrjcTjCaSmfXxcyP2hhGcI8aqX9U9N7maHZX1HTqh/cv19N5uxBacI8ORgT3N20EVimTl+AeRd+dqXoZwZ38qU5K3u2uVyb0U+QguMc8sbCtnX99aymUyUwUTt+3dIJ7NLaW7uU7X8py/ikMz6bb3clGSj0LLrhHlWXB/U2nq/mY63h7chPco+ji3DeCO2TnsuTdpq7zE9xX4jWxt73E0/E190vbrTyUpBTco1qqW1QXDjOegKZS3WbzajWtfoUX3Dvwdd5cB/f9sCpl8hTco2jj8S8Fd8jK6ojo3ZbZpAoNchDcx+I1sdhmlPu4oz/YyJ3Rlt4mDKU2zJXUymWWN6vZT0FDqU1BI/X0qoICDO7RzrLg/kb2DKtSJl/B/Wj45q4J7pCRTdm7LZWkfogcBPdCvEQ52+afqXbybJkX71hiDii4R9spfZxo/SCIKWgspR3JC2keehlicI8qNwT3/7kZVKVM3oJ7FF383WeCO2Ti7rrw3YbBxLa65SC4RzED5QftPiDc6dThKlfe+YHQkIJ7VOjqTmG5/cNaIHNQYSeFPaojPam+XQgyuEfNbsH9v05TK/Nnwf0t/vb1XwR3yMLwuPjdeqFMX2K/Qx6Ce0+8NpbbDxidOLzuH+P1d0fVoIL70dWw2+mTEi8NBzQJbXf8Y0wvx9LtUZjBPepfENz/YyOoSpk8BvcjD//4meAO6Wsoc2/VZIJpIA/BvRyvjXsJ5J7B5GP75vuesgIL7kcP1B0tIJlcKYQ1C2096GR3F6fT7k+gwT2qfnhPcP+3myFVyuQ0uEeFT794fE1wh7QdLIngrRVeJHkkRx6Ce8w2fpTE/4OVZN/qj1x+fwFPcME9Kkx3rIptfG8quFmosNKxkyG767XUH1NCDe5R1JgV3P9lP6RKmbwG9+Nb98tH314T3CFdq6+E8BbMJJp+8hDco3j/87sTiUl9CVaLTO6d9Jn78IJ7FI12XehIbN/sC3Iaqk50JLrP17N4Sgk3uBdqmyOC+7GNkCplchzcj/39q5/cF9wh1YSwY9H9tNbKmaxmZxvcYx66ndCbiKsJHQz5YOXkfYkhBvejG7OSeAXJ/OYH4c5DK4k/qUxm9HIh3OB+5LB4T3CP4tfKpFEpk/PgfuxX38/d/EZwh/RWu7o+Uup+ikXLYjnpl++5CO698RqZ2BmZ5fYLveefPo/zl8IM7kcOdpO8MRcmakHPQ4VmMckThV51ZXVQfdDBPYqGi8uCe+xamTQqZc5AcD928av9x78W3CEttecTz3o42Z2u4Q58yKXvSiyfZHqNXI3XyGfJ/cXmYDsJ48aLSsygundSnyqZDXpfb0LL7uMDz3MwDz2pryX0buHpcHY7cKdOvEnq2Q5z/+Xucx/cNwKqlDkjwf217x5+v3/99n3BHQhoXdAQpGe7p8U6rpEXQ0/OyBgc1hfaf0lUquWlu5/vtb0vd363XHWfvle1MjiSTXD/w/UTPUxlCOaux/Eolbbs3z7Rl/m6wD69+PCLR7/9zdz1b39x+/bNn4bpTyYCgMSNNgZO/bGBpd3S3TM1CIdDM/MtJ6zZp9O1fHV37NZg6x+YWP9Zuea2iWFqpTifQXDnHC1yeXoGOI+q5U8W44f2gYmxszgIo8+fzZz+7cNSceIwn7/5Vn1w8vRHtu+urLpfTnFRHfQWF1vL7Yu3DB8A8Hb9K08XTtq5uPRir9R/pkdhtbRXXItZ4nBl5lkj59VC/ZWemfV4+1XvrRfvNPvcJy14Uu4ZvBC7bube0qWnz6aHa9ZSAYD3qV3t2is+WPrRhtXx2UsDe13Pz0tsGz0s7+ztvrzw9jqH8dkHM5dvlceqZ6W71bHyTs/ux+vv6u6rmc2dxmHV7dHeRbXdHNoceLmw+PYEP7K08LJ4ubdysG2gAYCYjtf5Rp+MHTRK0xMTE5VSuXl1+9wu/hWmtoe3GqXXQ7FSOhqLrc+fVM92d5vnp7uZPR5vDx80m399PcxdpVKj2Rzuv2tYAAAAAAAAAAAAAAAAAAAAAAAAAAAAAAAAAAAAAAAAAAAAAAAAAAAAAAAAAAAAAAAAAAAAAAAAAAAAAAAAAAAAAAAAAAAAAAAAAAAAAAAAAAAAAAAAAAAAAAAAAAAAAAAAAAAAAAAAAAAAAAAAAAAAAAAAAAAAAAAAAAAAAAAAAAAAAAAAAAAAAAAAAAAAAAAAAAAAAAAAAAAAAAAAAAAAAAAAAAAAAAAAAAAAAAAAAAAAAAAAAAAAAAAAAAAAAAAAAAAAAAAAAAAAAAAAAAAAAAAAAAAAAAAAAAAAAAAAAAAAAAAAAAAAAAAAAAAAAAAAAAAAAAAAAAAAAAAAAPgne3AgAAAAAADk/9oIqqqqqqqqqqqqqqqqqqqqqqqqqqqqqqqqqqqqqqqqqqqqqqqqqqqqqqqqqqqqqqqqqqqqqqqqqqqqqqqqqqqqqqqqqqqqqqqqqqqqqqqqqqqqqqqqqqqqqqqqqqqqqqqqqqqqqqqqqqqqqqqqqqqqqqqqqqqqqqqqqqqqqqqqqqqqqqqqqqqqqqqqqqqqqqqqqqqqqqqqqqqqqqqqqqqqqqqqqqqqqqqqqqqqqqqqqqqqqqqqqqqqqqqqqqqqqqqqqqqqqqqqqqqqqqqqqqqqqqqqqqqqqqqqqqqqqqqqqqqqqqqqqqqqqqqqqqqqqqqqqqqqqqqqqqqqqqqqqqqqqqqqqqqqqqqqqqqqqqqqqqqqqqqqqqqqqqqqqqqqqqqqqqqqqqqqqqqqqqqqqqqqqqqqqqqqqqqqqqqqqqqqqqqqqqqqqqqqqqqqqqqqqqqqqqqqqqqqqqqqqqqqqqqqqqqqqqqqqqqqqqqqqqqqqqqqqqqqqqqqqqqqqqqqqqqqqqqqqqqqqqqqqqqqqqqqqqqqqqqqqqqqqqqqqqqqqqqqqqqqqqqqqqqqqqqqqqqqqqqqqqqqqqqqqqqqqqqqqqqqqqqqqqqqqqqqqqqqqqqqqqqqqqqqqqqqqqqqqqqqqqqqqqqqqqqqqqqqqqqqqqqqqqqqqqqqqqqqqqqqqirswYEAAAAAAJD/ayOoqqqqqqqqqqqqqqqqqqqqqqqqqqqqqqqqqqqqqqqqqqqqqqqqqqqqqqqqqqqqqqqqqqqqqqqqqqqqqqqqqqqqqqqqqqqqqqqqqqqqqqqqqqqqqqqqqqqqqqqqqqqqqqqqqqqqqqqqqqqqqqqqqqqqqqqqqqqqqqqqqqqqqqqqqqqqqqqqqqqqqqqqqqqqqqqqqqqqqqqqqqqqqqqqqqqqqqqqqqqqqqqqqqqqqqqqqqqqqqqqqqqqqqqqqqqqqqqqqqqqqqqqqqqqqqqqqqqqqqqqqqqqqqqqqqqqqqqqqqqqqqqqqqqqqqqqqqqqqqqqqqqqqqqqqqqqqqqqqqqqqqqqqqqqqqqqqqqqqqqqqqqqqqqqqqqqqqqqqqqqqqqqqqqqqqqqqqqqqqqqqqqqqqqqqqqqqqqqqqqqqqqqqqqqqqqqqqqqqqqqqqqqqqqqqqqqqqqqqqqqqqqqqqqqqqqqqqqqqqqqqqqqqqqqqqqqqqqqqqqqqqqqqqqqqqqqqqqqqqqqqqqqqqqqqqqqqqqqqqqqqqqqqqqqqqqqqqqqqqqqqqqqqqqqqqqqqqqqqqqqqqqqqqqqqqqqqqqqqqqqqqqqqqqqqqqqqqqqqqqqqqqqqqqqqqqqqqqqqqqqqqqqqqqqqqqqqqqqqqqqqqqqqqqqqqqqqqqqqqqqqrAHBwIAAAAAQP6vjaCqqqqqqqqqqqqqqqqqqqqqqqqqqqqqqqqqqqqqqqqqqqqqqqqqqqqqqqqqqqqqqqqqqqqqqqqqqqqqqqqqqqqqqqqqqqqqqqqqqqqqqqqqqqqqqqqqqqqqqqqqqqqqqqqqqqqqqqqqqqqqqqqqqqqqqqqqqqqqqqqqqqqqqqqqqqqqqqqqqqqqqqqqqqqqqqqqqqqqqqqqqqqqqqqqqqqqqqqqqqqqqqqqqqqqqqqqqqqqqqqqqqqqqqqqqqqqqqqqqqqqqqqqqqqqqqqqqqqqqqqqqqqqqqqqqqqqqqqqqqqqqqqqqqqqqqqqqqqqqqqqqqqqqqqqqqqqqqqqqqqqqqqqqqqqqqqqqqqqqqqqqqqqqqqqqqqqqqqqqqqqqqqqqqqqqqqqqqqqqqqqqqqqqqqqqqqqqqqqqqqqqqqqqqqqqqqqqqqqqqqqqqqqqqqqqqqqqqqqqqqqqqqqqqqqqqqqqqqqqqqqqqqqqqqqqqqqqqqqqqqqqqqqqqqqqqqqqqqqqqqqqqqqqqqqqqqqqqqqqqqqqqqqqqqqqqqqqqqqqqqqqqqqqqqqqqqqqqqqqqqqqqqqqqqqqqqqqqqqqqqqqqqqqqqqqqqqqqqqqqqqqqqqqqqqqqqqqqqqqqqqqqqqqqqqqqqqqqqqqqqqqqqqqqqqqqqqqqqqqqqqwh4cCAAAAAAA+b82gqqqqqqqqqqqqqqqqqqqqqqqqqqqqqqqqqqqqqqqqqqqqqqqqqqqqqqqqqqqqqqqqqqqqqqqqqqqqqqqqqqqqqqqqqqqqqqqqqqqqqqqqqqqqqqqqqqqqqqqqqqqqqqqqqqqqqqqqqqqqqqqqqqqqqqqqqqqqqqqqqqqqqqqqqqqqqqqqqqqqqqqqqqqqqqqqqqqqqqqqqqqqqqqqqqqqqqqqqqqqqqqqqqqqqqqqqqqqqqqqqqqqqqqqqqqqqqqqqqqqqqqqqqqqqqqqqqqqqqqqqqqqqqqqqqqqqqqqqqqqqqqqqqqqqqqqqqqqqqqqqqqqqqqqqqqqqqqqqqqqqqqqqqqqqqqqqqqqqqqqqqqqqqqqqqqqqqqqqqqqqqqqqqqqqqqqqqqqqqqqqqqqqqqqqqqqqqqqqqqqqqqqqqqqqqqqqqqqqqqqqqqqqqqqqqqqqqqqqqqqqqqqqqqqqqqqqqqqqqqqqqqqqqqqqqqqqqqqqqqqqqqqqqqqqqqqqqqqqqqqqqqqqqqqqqqqqqqqqqqqqqqqqqqqqqqqqqqqqqqqqqqqqqqqqqqqqqqqqqqqqqqqqqqqqqqqqqqqqqqqqqqqqqqqqqqqqqqqqqqqqqqqqqqqqqqqqqqqqqqqqqqqqqqqqqqqqqqqqqqqqqqqqqqqqqqqqqqqqqqqqpKe3AgAAAAACDI33qEBSoAAAAAAAAAAAAAAAAAAAAAAAAAAAAAAAAAAAAAAAAAAAAAAAAAAAAAAAAAAAAAAAAAAAAAAAAAAAAAAAAAAAAAAAAAAAAAAAAAAAAAAAAAAAAAAAAAAAAAAAAAAABgBPLMh16N66NvAAAAAElFTkSuQmCC;" parent="1" vertex="1">
          <mxGeometry x="2715" y="1086.67" width="110" height="73.33" as="geometry" />
        </mxCell>
        <mxCell id="lRMkZzCJkcgg9IVptvqz-47" value="" style="shape=datastore;whiteSpace=wrap;html=1;" parent="1" vertex="1">
          <mxGeometry x="3014.5" y="766" width="91" height="104.5" as="geometry" />
        </mxCell>
        <mxCell id="lRMkZzCJkcgg9IVptvqz-48" value="H2&lt;div&gt;&amp;nbsp;Database&lt;/div&gt;" style="text;html=1;align=center;verticalAlign=middle;resizable=0;points=[];autosize=1;strokeColor=none;fillColor=none;" parent="1" vertex="1">
          <mxGeometry x="3010" y="540.25" width="80" height="40" as="geometry" />
        </mxCell>
        <mxCell id="lRMkZzCJkcgg9IVptvqz-56" value="" style="shape=datastore;whiteSpace=wrap;html=1;" parent="1" vertex="1">
          <mxGeometry x="3160" y="530.25" width="60" height="59.5" as="geometry" />
        </mxCell>
        <mxCell id="lRMkZzCJkcgg9IVptvqz-57" value="Database" style="text;html=1;align=center;verticalAlign=middle;resizable=0;points=[];autosize=1;strokeColor=none;fillColor=none;" parent="1" vertex="1">
          <mxGeometry x="3252" y="545" width="70" height="30" as="geometry" />
        </mxCell>
        <mxCell id="lRMkZzCJkcgg9IVptvqz-59" value="" style="ellipse;whiteSpace=wrap;html=1;fillColor=#fad9d5;strokeColor=#ae4132;" parent="1" vertex="1">
          <mxGeometry x="3150" y="617" width="80" height="48" as="geometry" />
        </mxCell>
        <mxCell id="lRMkZzCJkcgg9IVptvqz-60" value="Process" style="text;html=1;align=center;verticalAlign=middle;resizable=0;points=[];autosize=1;strokeColor=none;fillColor=none;" parent="1" vertex="1">
          <mxGeometry x="3252" y="626" width="70" height="30" as="geometry" />
        </mxCell>
        <mxCell id="lRMkZzCJkcgg9IVptvqz-62" value="RabbitMQ Processes" style="swimlane;fontStyle=0;childLayout=stackLayout;horizontal=1;startSize=30;horizontalStack=0;resizeParent=1;resizeParentMax=0;resizeLast=0;collapsible=1;marginBottom=0;whiteSpace=wrap;html=1;" parent="1" vertex="1">
          <mxGeometry x="3150" y="715" width="180" height="320" as="geometry" />
        </mxCell>
        <mxCell id="lRMkZzCJkcgg9IVptvqz-63" value="&lt;font style=&quot;font-size: 14px;&quot;&gt;1. Request Transaction&lt;/font&gt;&lt;div&gt;&lt;font style=&quot;font-size: 14px;&quot;&gt;2. Transaction Details from Transaction service to Payment Service.&lt;/font&gt;&lt;/div&gt;&lt;div&gt;&lt;font style=&quot;font-size: 14px;&quot;&gt;3. Payment request from Payment Service to Wallet Database.&lt;/font&gt;&lt;/div&gt;&lt;div&gt;&lt;font style=&quot;font-size: 14px;&quot;&gt;4. Payment Acknowledgement to Payment service.&lt;/font&gt;&lt;/div&gt;&lt;div&gt;&lt;font style=&quot;font-size: 14px;&quot;&gt;5. Store transaction details into transaction database.&lt;/font&gt;&lt;/div&gt;&lt;div&gt;&lt;font style=&quot;font-size: 14px;&quot;&gt;6. Transaction service fetches transaction details.&lt;/font&gt;&lt;/div&gt;&lt;div&gt;&lt;font style=&quot;font-size: 14px;&quot;&gt;7. Transaction detail with token towards Wallet service.&lt;/font&gt;&lt;/div&gt;&lt;div&gt;&lt;font style=&quot;font-size: 14px;&quot;&gt;&lt;br&gt;&lt;/font&gt;&lt;/div&gt;&lt;div&gt;&lt;br&gt;&lt;/div&gt;" style="text;strokeColor=none;fillColor=none;align=left;verticalAlign=middle;spacingLeft=4;spacingRight=4;overflow=hidden;points=[[0,0.5],[1,0.5]];portConstraint=eastwest;rotatable=0;whiteSpace=wrap;html=1;" parent="lRMkZzCJkcgg9IVptvqz-62" vertex="1">
          <mxGeometry y="30" width="180" height="290" as="geometry" />
        </mxCell>
        <mxCell id="lRMkZzCJkcgg9IVptvqz-66" value="Wallet Exists?" style="shape=rhombus;perimeter=rhombusPerimeter;whiteSpace=wrap;html=1;align=center;fillColor=#6a00ff;fontColor=#ffffff;strokeColor=#3700CC;" parent="1" vertex="1">
          <mxGeometry x="1965" y="806.5" width="125" height="83.5" as="geometry" />
        </mxCell>
        <mxCell id="lRMkZzCJkcgg9IVptvqz-71" style="edgeStyle=orthogonalEdgeStyle;rounded=0;orthogonalLoop=1;jettySize=auto;html=1;entryX=0;entryY=0.5;entryDx=0;entryDy=0;" parent="1" source="lRMkZzCJkcgg9IVptvqz-70" target="Pd79XSAWvJQS5Z2BdVuV-52" edge="1">
          <mxGeometry relative="1" as="geometry" />
        </mxCell>
        <mxCell id="lRMkZzCJkcgg9IVptvqz-70" value="Merchant" style="shape=umlActor;verticalLabelPosition=bottom;verticalAlign=top;html=1;outlineConnect=0;" parent="1" vertex="1">
          <mxGeometry x="1820" y="420" width="30" height="60" as="geometry" />
        </mxCell>
        <mxCell id="VinnBDEk5pjfKlVAtNLd-4" style="edgeStyle=orthogonalEdgeStyle;rounded=0;orthogonalLoop=1;jettySize=auto;html=1;" edge="1" parent="1" source="Pd79XSAWvJQS5Z2BdVuV-48">
          <mxGeometry relative="1" as="geometry">
            <mxPoint x="2455" y="760" as="targetPoint" />
          </mxGeometry>
        </mxCell>
        <mxCell id="VinnBDEk5pjfKlVAtNLd-5" value="" style="shape=datastore;whiteSpace=wrap;html=1;" vertex="1" parent="1">
          <mxGeometry x="3014.5" y="508" width="91" height="104.5" as="geometry" />
        </mxCell>
        <mxCell id="VinnBDEk5pjfKlVAtNLd-6" value="H2&lt;div&gt;&amp;nbsp;Database&lt;/div&gt;" style="text;html=1;align=center;verticalAlign=middle;resizable=0;points=[];autosize=1;strokeColor=none;fillColor=none;" vertex="1" parent="1">
          <mxGeometry x="3020" y="550.25" width="80" height="40" as="geometry" />
        </mxCell>
        <mxCell id="VinnBDEk5pjfKlVAtNLd-7" value="H2&lt;div&gt;&amp;nbsp;Database&lt;/div&gt;" style="text;html=1;align=center;verticalAlign=middle;resizable=0;points=[];autosize=1;strokeColor=none;fillColor=none;" vertex="1" parent="1">
          <mxGeometry x="3020" y="812.5" width="80" height="40" as="geometry" />
        </mxCell>
        <mxCell id="VinnBDEk5pjfKlVAtNLd-8" value="" style="shape=datastore;whiteSpace=wrap;html=1;" vertex="1" parent="1">
          <mxGeometry x="3014.5" y="994" width="91" height="104.5" as="geometry" />
        </mxCell>
        <mxCell id="VinnBDEk5pjfKlVAtNLd-9" value="H2&lt;div&gt;&amp;nbsp;Database&lt;/div&gt;" style="text;html=1;align=center;verticalAlign=middle;resizable=0;points=[];autosize=1;strokeColor=none;fillColor=none;" vertex="1" parent="1">
          <mxGeometry x="3015" y="1051.5" width="80" height="40" as="geometry" />
        </mxCell>
        <mxCell id="VinnBDEk5pjfKlVAtNLd-10" value="" style="endArrow=classic;startArrow=classic;html=1;rounded=0;exitX=1;exitY=0.5;exitDx=0;exitDy=0;entryX=0.5;entryY=1;entryDx=0;entryDy=0;" edge="1" parent="1" source="lRMkZzCJkcgg9IVptvqz-33" target="VinnBDEk5pjfKlVAtNLd-1">
          <mxGeometry width="50" height="50" relative="1" as="geometry">
            <mxPoint x="2770" y="1220" as="sourcePoint" />
            <mxPoint x="2856" y="880" as="targetPoint" />
            <Array as="points">
              <mxPoint x="2860" y="1220" />
            </Array>
          </mxGeometry>
        </mxCell>
        <mxCell id="VinnBDEk5pjfKlVAtNLd-13" value="" style="endArrow=classic;startArrow=classic;html=1;rounded=0;exitX=0.749;exitY=1.027;exitDx=0;exitDy=0;exitPerimeter=0;" edge="1" parent="1" source="VinnBDEk5pjfKlVAtNLd-1">
          <mxGeometry width="50" height="50" relative="1" as="geometry">
            <mxPoint x="2887" y="880" as="sourcePoint" />
            <mxPoint x="2456" y="1260" as="targetPoint" />
            <Array as="points">
              <mxPoint x="2887" y="1360" />
              <mxPoint x="2456" y="1360" />
            </Array>
          </mxGeometry>
        </mxCell>
        <mxCell id="VinnBDEk5pjfKlVAtNLd-14" value="" style="endArrow=classic;startArrow=classic;html=1;rounded=0;entryX=0;entryY=0.5;entryDx=0;entryDy=0;" edge="1" parent="1" target="VinnBDEk5pjfKlVAtNLd-8">
          <mxGeometry width="50" height="50" relative="1" as="geometry">
            <mxPoint x="2920" y="840" as="sourcePoint" />
            <mxPoint x="3010.002" y="927.049" as="targetPoint" />
            <Array as="points">
              <mxPoint x="2958.96" y="840" />
              <mxPoint x="2960" y="1046" />
            </Array>
          </mxGeometry>
        </mxCell>
        <mxCell id="VinnBDEk5pjfKlVAtNLd-15" value="" style="endArrow=classic;startArrow=classic;html=1;rounded=0;" edge="1" parent="1">
          <mxGeometry width="50" height="50" relative="1" as="geometry">
            <mxPoint x="2920" y="840" as="sourcePoint" />
            <mxPoint x="3010" y="840" as="targetPoint" />
          </mxGeometry>
        </mxCell>
        <mxCell id="VinnBDEk5pjfKlVAtNLd-16" value="" style="endArrow=classic;startArrow=classic;html=1;rounded=0;entryX=-0.002;entryY=0.59;entryDx=0;entryDy=0;entryPerimeter=0;" edge="1" parent="1">
          <mxGeometry width="50" height="50" relative="1" as="geometry">
            <mxPoint x="2920" y="840" as="sourcePoint" />
            <mxPoint x="3013.318" y="569.6550000000001" as="targetPoint" />
            <Array as="points">
              <mxPoint x="2959" y="840" />
              <mxPoint x="2959" y="570" />
            </Array>
          </mxGeometry>
        </mxCell>
        <mxCell id="VinnBDEk5pjfKlVAtNLd-17" value="" style="endArrow=classic;startArrow=classic;html=1;rounded=0;exitX=1.008;exitY=0.572;exitDx=0;exitDy=0;exitPerimeter=0;entryX=0;entryY=0.5;entryDx=0;entryDy=0;" edge="1" parent="1" target="VinnBDEk5pjfKlVAtNLd-1">
          <mxGeometry width="50" height="50" relative="1" as="geometry">
            <mxPoint x="2915.92" y="840.3999999999999" as="sourcePoint" />
            <mxPoint x="3015" y="1046" as="targetPoint" />
            <Array as="points" />
          </mxGeometry>
        </mxCell>
        <mxCell id="VinnBDEk5pjfKlVAtNLd-1" value="Database Service" style="rounded=0;whiteSpace=wrap;html=1;fillColor=#e3c800;fontColor=#000000;strokeColor=#B09500;" vertex="1" parent="1">
          <mxGeometry x="2796" y="800.5" width="120" height="75" as="geometry" />
        </mxCell>
        <mxCell id="VinnBDEk5pjfKlVAtNLd-19" value="/db/user" style="text;html=1;align=center;verticalAlign=middle;resizable=0;points=[];autosize=1;strokeColor=none;fillColor=none;" vertex="1" parent="1">
          <mxGeometry x="3023" y="629" width="70" height="30" as="geometry" />
        </mxCell>
        <mxCell id="VinnBDEk5pjfKlVAtNLd-20" value="/db/wallet" style="text;html=1;align=center;verticalAlign=middle;resizable=0;points=[];autosize=1;strokeColor=none;fillColor=none;" vertex="1" parent="1">
          <mxGeometry x="3025" y="885.5" width="70" height="30" as="geometry" />
        </mxCell>
        <mxCell id="VinnBDEk5pjfKlVAtNLd-21" value="/db/transaction" style="text;html=1;align=center;verticalAlign=middle;resizable=0;points=[];autosize=1;strokeColor=none;fillColor=none;" vertex="1" parent="1">
          <mxGeometry x="3008" y="1110.34" width="100" height="30" as="geometry" />
        </mxCell>
      </root>
    </mxGraphModel>
  </diagram>
</mxfile>
